/* XPM */
static char *amo[] = {
/* width height num_colors chars_per_pixel */
"    32    32      246            2",
/* colors */
".. c #c0c0c0",
".# c #bfc0bf",
".a c #bfbfbf",
".b c #00bf00",
".c c #00aa00",
".d c #00ba00",
".e c #009700",
".f c #00c600",
".g c #00ce00",
".h c #00d800",
".i c #00c100",
".j c #bdbfbd",
".k c #008800",
".l c #00b700",
".m c #00c500",
".n c #00c200",
".o c #00cd00",
".p c #00a300",
".q c #00a600",
".r c #00a800",
".s c #009900",
".t c #00be00",
".u c #00b800",
".v c #00af00",
".w c #00b500",
".x c #008d00",
".y c #00b600",
".z c #00c900",
".A c #00cf00",
".B c #00c700",
".C c #00ca00",
".D c #00cc00",
".E c #00ab00",
".F c #00bc00",
".G c #00b100",
".H c #00cb00",
".I c #c1c1c1",
".J c #00bb00",
".K c #00a400",
".L c #009f00",
".M c #00b200",
".N c #00b400",
".O c #00bd00",
".P c #00d000",
".Q c #009a00",
".R c #009200",
".S c #008e00",
".T c #bec0be",
".U c #008300",
".V c #00c400",
".W c #00c300",
".X c #00a500",
".Y c #00b300",
".Z c #008b00",
".0 c #00a000",
".1 c #bdc0bd",
".2 c #00a700",
".3 c #009600",
".4 c #007b00",
".5 c #007200",
".6 c #009800",
".7 c #00d700",
".8 c #00a100",
".9 c #009500",
"#. c #329732",
"## c #007f00",
"#a c #006800",
"#b c #007d00",
"#c c #00d200",
"#d c #009400",
"#e c #007c00",
"#f c #006400",
"#g c #00ad00",
"#h c #dbcadb",
"#i c #c2c1c2",
"#j c #00dc00",
"#k c #00d300",
"#l c #c6c2c6",
"#m c #c1c0c1",
"#n c #009c00",
"#o c #dbc4db",
"#p c #e1c9e1",
"#q c #005900",
"#r c #c6c3c6",
"#s c #006f00",
"#t c #177417",
"#u c #00d400",
"#v c #00c800",
"#w c #d0c5d0",
"#x c #d0c1d0",
"#y c #00ae00",
"#z c #00df00",
"#A c #c8c4c8",
"#B c #dacbda",
"#C c #bebfbe",
"#D c #17a217",
"#E c #d0c7d0",
"#F c #bbc1bb",
"#G c #139c13",
"#H c #ccc4cc",
"#I c #dcc5dc",
"#J c #ddc8dd",
"#K c #00ac00",
"#L c #ddcddd",
"#M c #00b000",
"#N c #c5c3c5",
"#O c #bcbfbc",
"#P c #dcc9dc",
"#Q c #5c9b5c",
"#R c #c7c5c7",
"#S c #5cb65c",
"#T c #28b428",
"#U c #c4bac4",
"#V c #daceda",
"#W c #c3c2c3",
"#X c #9eb79e",
"#Y c #bab7ba",
"#Z c #81c381",
"#0 c #004700",
"#1 c #729b72",
"#2 c #00da00",
"#3 c #5b7a5b",
"#4 c #00db00",
"#5 c #006200",
"#6 c #d4c0d4",
"#7 c #009d00",
"#8 c #00d600",
"#9 c #c9c1c9",
"a. c #cac5ca",
"a# c #70a370",
"aa c #008500",
"ab c #238b23",
"ac c #d4c7d4",
"ad c #007500",
"ae c #bbb9bb",
"af c #beb2be",
"ag c #eac4ea",
"ah c #efd2ef",
"ai c #00d100",
"aj c #6fb06f",
"ak c #d0c8d0",
"al c #007300",
"am c #ddc2dd",
"an c #09c509",
"ao c #1abc1a",
"ap c #dfccdf",
"aq c #aab3aa",
"ar c #efcbef",
"as c #cfc2cf",
"at c #00b900",
"au c #d9c3d9",
"av c #00c000",
"aw c #00dd00",
"ax c #00e000",
"ay c #377637",
"az c #88a288",
"aA c #008000",
"aB c #007700",
"aC c #d7c3d7",
"aD c #008200",
"aE c #d9c6d9",
"aF c #cfc6cf",
"aG c #dbc6db",
"aH c #4d814d",
"aI c #e0bfe0",
"aJ c #9cbd9c",
"aK c #008100",
"aL c #448444",
"aM c #257625",
"aN c #cbc1cb",
"aO c #009e00",
"aP c #00d500",
"aQ c #00a900",
"aR c #7b8d7b",
"aS c #008a00",
"aT c #009100",
"aU c #b4bcb4",
"aV c #d3c5d3",
"aW c #decfde",
"aX c #2a7f2a",
"aY c #006e00",
"aZ c #b4b6b4",
"a0 c #c5c0c5",
"a1 c #057e05",
"a2 c #dfc4df",
"a3 c #0e580e",
"a4 c #034f03",
"a5 c #006600",
"a6 c #016c01",
"a7 c #cec7ce",
"a8 c #91b691",
"a9 c #007900",
"b. c #b3b8b3",
"b# c #004300",
"ba c #05a105",
"bb c #007e00",
"bc c #007a00",
"bd c #089908",
"be c #d6cad6",
"bf c #008c00",
"bg c #c3afc3",
"bh c #097609",
"bi c #d7c4d7",
"bj c #64a664",
"bk c #c2c2c2",
"bl c #00d900",
"bm c #809380",
"bn c #008700",
"bo c #0ecc0e",
"bp c #006100",
"bq c #c3c1c3",
"br c #b7b7b7",
"bs c #004e00",
"bt c #79aa79",
"bu c #00a200",
"bv c #108410",
"bw c #c1b0c1",
"bx c #ccbccc",
"by c #cec6ce",
"bz c #8fa38f",
"bA c #c2c0c2",
"bB c #006500",
"bC c #b0b4b0",
"bD c #006c00",
"bE c #005c00",
"bF c #ebd1eb",
"bG c #c0c1c0",
"bH c #4f9b4f",
"bI c #ccbfcc",
"bJ c #7bb57b",
"bK c #008400",
"bL c #c7c2c7",
"bM c #488248",
"bN c #dccddc",
"bO c #009300",
"bP c #d1c8d1",
"bQ c #3ab23a",
"bR c #a9b2a9",
"bS c #79a679",
"bT c #dabfda",
"bU c #bbb6bb",
"bV c #009000",
"bW c #005500",
"bX c #087508",
"bY c #006b00",
"bZ c #009b00",
/* pixels */
"...............##l#l...........................................a",
".a...........ja.aFasaua0.T.....................................a",
"............byaeab#D#Zam#6.1....................................",
"..........#mapbM#s.0#M#T#mbT.1..................................",
".......##i#Para3#abV.E.Oan#FbT.1................................",
".....T#r#J#Xbja1aa.9.c.b.Dbo#6bI.#..............................",
"....bqaGbH.9.v.B.f.b.O.i.B.H#SaI.#..............................",
"....#haz#e.q.y.n.m.f.f.V.nav.baU#x#A#WacaEa.#J#H#O..............",
"....apaL.4.QaO.Q.X.l.n.n.J.N#y#SarbLa2bza#bxbSaUag#I#l.1........",
".a..bNbM#faAaA.x.q.N.d.d.M.2#7#DaIaM#..R.p#G#nabaj#SaNas.#......",
"...jbFaRaB.v.W.D.z.f.i.u.r.e.xbn#G.e#v#8#k.z.d.c.q.RbjagaC.1....",
"#C#wbU#D.n.A.A#kaP.H.W.d.2.Zad##.r.h#4#k.m.y#g.cbu.p.laoaJ#6.#..",
"#i#o#..X.J.F.C.B.caQ.N.w.c.x#qaT.z.i#g.E.E.Z.4.U.6.2.p#KbabT#l..",
"#waZ.k.p.cat.2ad.S.G.t.b.u.p#5.x.h.6.S.B.X.ebWbsaa.K.F.f.rbrbi.j",
"acaq#e.3.p.saY.0.g#cai#c.m.Y.3aY.K.t.cbaa1.ObW#0.e.r.savaxaobx#9",
"#AaNbhbK.k##.t#z.h.7aw.f.M.N.w.0#b.k.s.S.e.U#faS.K.f.mbZ.w.bbJam",
".a#L#1bEbc.bbl.A.g#4.l.9.v.i.B.z.l.s.x.S.k.k#y.d.c.q#j#z.Y#daja2",
".a#W#paH.s.g.W.i.P.G.5.r.o#c.7.g.u.u.i.f.t.w.J.g.C.L.q#z#2#Gaf#H",
"..#C#pbt.r.u.w.datbp#d.h.h#u.h.l.G.n.C.P.m.F.M.CaP.g.R.u.Dan#U#9",
"...I#I#..L.caQ.y.4bY.h#j.g#u.b.Q.F.o#v.o.b.m.G.y.o.h.d.Q.l.Y#XaC",
"....#p#Q.k.L#n.La5.vax.H.V.H#d.e.P.o.i.n.M.o.d.8.b.m#8.3.R.eaUas",
"....#Eaeal#b.xbb#eai.D.O.t.v.5.E#j.V.l.Y.K.A.VbO#K.G.7.e#fa#aE..",
".....j#BbRaX#a#q.s.g.d.v.y.k#a.i#2.y#g.8.e.D.CaS.6.0.b#Tbg#JbG.#",
".......jbeac#Ubm#n.F.E.p.q#f#s.o.A.r.8.Z.Z.f.HadaBaT.qbQarbA.#..",
".a.......##NbFbC.S.caO.3aKb#.4.P.b#7aDbDaD.t.WaMbsbB.UbJaG......",
"............bL#xbvaK#b#aay#3a9.z#M.UaMa4.5.w.XbRbw#3a#acbk......",
".............#bPaZaLaLazahaf#s.JbfbhahaR#0.sbd#x#VaW#h#i.T......",
"...............j#E#h#h#Va.bi#t##bXbUaWaWbMa6a8#P.T.I.I..........",
"...................I.I...#akaq#Qb.#B#O#RbP#YaV.#................",
"..........................#OaF#LaF.j...a#Na7#m..................",
".a.............................................................a",
".a.............................................................a"
};
