/* XPM */
static char *big[] = {
/* width height num_colors chars_per_pixel */
"    32    32      245            2",
/* colors */
".. c #c0c0c0",
".# c #00ff00",
".a c #bfc0bf",
".b c #bfbfbf",
".c c #00fa00",
".d c #00bd00",
".e c #00f100",
".f c #00e500",
".g c #00fd00",
".h c #00ef00",
".i c #00d400",
".j c #00a900",
".k c #bec0be",
".l c #00f900",
".m c #00bb00",
".n c #00a500",
".o c #00b500",
".p c #00f600",
".q c #00da00",
".r c #00f000",
".s c #00dd00",
".t c #bec1be",
".u c #009300",
".v c #00c600",
".w c #00e600",
".x c #00d700",
".y c #00d600",
".z c #006800",
".A c #00c400",
".B c #007f00",
".C c #009500",
".D c #009d00",
".E c #00b700",
".F c #00b000",
".G c #00cb00",
".H c #00bc00",
".I c #00eb00",
".J c #00f300",
".K c #009000",
".L c #00a000",
".M c #008b00",
".N c #00e400",
".O c #00ad00",
".P c #007600",
".Q c #00e000",
".R c #00d500",
".S c #00a300",
".T c #00a700",
".U c #00db00",
".V c #00ee00",
".W c #00cc00",
".X c #c1c1c1",
".Y c #008000",
".Z c #00e700",
".0 c #00ae00",
".1 c #008d00",
".2 c #00ac00",
".3 c #00b900",
".4 c #00a200",
".5 c #00cf00",
".6 c #00d200",
".7 c #00c000",
".8 c #00f800",
".9 c #00ca00",
"#. c #00b300",
"## c #008f00",
"#a c #009e00",
"#b c #00d900",
"#c c #00b200",
"#d c #00f400",
"#e c #00c700",
"#f c #c9c5c9",
"#g c #009400",
"#h c #00c500",
"#i c #008200",
"#j c #009a00",
"#k c #00b600",
"#l c #007800",
"#m c #c2c1c2",
"#n c #009600",
"#o c #005f00",
"#p c #005e00",
"#q c #008e00",
"#r c #007900",
"#s c #00ba00",
"#t c #c7c1c7",
"#u c #e3d3e3",
"#v c #005b00",
"#w c #86d286",
"#x c #006900",
"#y c #cec7ce",
"#z c #00ce00",
"#A c #dfbedf",
"#B c #009100",
"#C c #deb9de",
"#D c #006300",
"#E c #00a600",
"#F c #007d00",
"#G c #00c300",
"#H c #008600",
"#I c #00b400",
"#J c #bfc1bf",
"#K c #c3bac3",
"#L c #d8b8d8",
"#M c #02be02",
"#N c #00c100",
"#O c #3f6f3f",
"#P c #009f00",
"#Q c #b8c2b8",
"#R c #dec0de",
"#S c #00e900",
"#T c #2ce02c",
"#U c #00af00",
"#V c #00e100",
"#W c #156315",
"#X c #035e03",
"#Y c #c6bec6",
"#Z c #537f53",
"#0 c #76b976",
"#1 c #d6b9d6",
"#2 c #cebece",
"#3 c #00c900",
"#4 c #009b00",
"#5 c #e6bde6",
"#6 c #00fb00",
"#7 c #0eeb0e",
"#8 c #4eb74e",
"#9 c #e4bae4",
"a. c #c8bac8",
"a# c #d7c5d7",
"aa c #d9c1d9",
"ab c #008700",
"ac c #00df00",
"ad c #b4b6b4",
"ae c #82ad82",
"af c #00d000",
"ag c #d0c8d0",
"ah c #56cc56",
"ai c #d9cdd9",
"aj c #c9bfc9",
"ak c #94b594",
"al c #c6c3c6",
"am c #008500",
"an c #00be00",
"ao c #7e997e",
"ap c #e7c3e7",
"aq c #00c800",
"ar c #dac9da",
"as c #b1bdb1",
"at c #559455",
"au c #ddc4dd",
"av c #c8c1c8",
"aw c #ebd2eb",
"ax c #c5bcc5",
"ay c #d7bbd7",
"az c #008100",
"aA c #a7baa7",
"aB c #00e200",
"aC c #b9bcb9",
"aD c #106410",
"aE c #5aa25a",
"aF c #004000",
"aG c #237823",
"aH c #006d00",
"aI c #99aa99",
"aJ c #e0d0e0",
"aK c #005300",
"aL c #e3b5e3",
"aM c #00f500",
"aN c #c3c1c3",
"aO c #d5cbd5",
"aP c #d3bfd3",
"aQ c #09a909",
"aR c #008900",
"aS c #7e9f7e",
"aT c #c7c0c7",
"aU c #00ec00",
"aV c #006000",
"aW c #a9c0a9",
"aX c #497d49",
"aY c #decfde",
"aZ c #00a100",
"a0 c #0be70b",
"a1 c #95c795",
"a2 c #86b286",
"a3 c #00de00",
"a4 c #00b100",
"a5 c #00e800",
"a6 c #d3cad3",
"a7 c #005800",
"a8 c #25d025",
"a9 c #00ea00",
"b. c #8cc98c",
"b# c #23f823",
"ba c #00ed00",
"bb c #c4c0c4",
"bc c #d1c3d1",
"bd c #c3c0c3",
"be c #c2c2c2",
"bf c #e8d0e8",
"bg c #cfc4cf",
"bh c #dfc1df",
"bi c #00b800",
"bj c #00d800",
"bk c #007e00",
"bl c #d2bed2",
"bm c #d7ccd7",
"bn c #00cd00",
"bo c #006f00",
"bp c #deb8de",
"bq c #c8c2c8",
"br c #d6cad6",
"bs c #dccfdc",
"bt c #c6c0c6",
"bu c #e4c3e4",
"bv c #008800",
"bw c #e5c8e5",
"bx c #c0c1c0",
"by c #91c191",
"bz c #cac5ca",
"bA c #005c00",
"bB c #a9b0a9",
"bC c #22f422",
"bD c #cebdce",
"bE c #6ea46e",
"bF c #5dc25d",
"bG c #009800",
"bH c #9dca9d",
"bI c #cac6ca",
"bJ c #00d300",
"bK c #c2bdc2",
"bL c #e3bae3",
"bM c #c7c4c7",
"bN c #00dc00",
"bO c #007b00",
"bP c #226822",
"bQ c #00a800",
"bR c #00f200",
"bS c #00fe00",
"bT c #00f700",
"bU c #0e610e",
"bV c #bab9ba",
"bW c #005900",
"bX c #debade",
"bY c #ded1de",
/* pixels */
"...............................................................b",
".b.............................................................b",
"................................................................",
"................................................................",
"..........................aN#f#f#fbzbIal........................",
".................a#m#yaiaJbrbq#t#taTbtagaYbsagbM................",
".............abxbmbsbKaIbEaGaDaDaDaDbUbP#Zaoad#ybYaO...a........",
".........a.aaO#ubB#O#X#vaVbo.P#l.B.B#lbo#D#pbA#W#ZbB#ua6.a......",
".......a#maJbVaXa7#D#Fbv.u.n#U.H.7.3.F.j.D.1.P#vaFaFaXbVbwbg.k.a",
".b...abeawaobW.z.Y.1#g.L.H#s.T.n.4#k.i.R#I.4.S.F.E.j.KamaE#Yau.k",
"...a.Xawao#p#r.M.u.K.n.o#q.P#i.Y##.Y#x.M.I.#.#.#.#.#aM.QanaQakaa",
".a.abfaS.z#H#q#B.K#j#E#r.P.u.C.7#Uaq.F#x.z.s.#.#.#.l.e#S#V.5.3as",
".karaIaH.M#g.C.u.M#naz##.1.M.d#6.F#H.y.d#raKac.#.#.#.c.J.I.N.xby",
"ala#bOab.D#j#j.Kam#F#n.H#aaR.s.d.0.4.T#3.2.B#p.h.#.#.##6#dbR#7#Y",
"araIam.L.SaZ.L#BbO.z.o.x.x#h.0an.s.9.Dbia4.T.z.S.#.#.#.#.#.#bH#C",
"auatbG.j.2.j#E#4azaK.2.##d.c.g.#.#.9###..o.0#gbk.#.#.#.#.##wbp.a",
"aC#j.j#c.o#..ObQ.CaH#o.i.#.#.#.#.Qab#P#s.m#k.O.P#e.#.#bC#QaL...k",
"a2#P#k.m.d.d.3#..O.D.P#o.u.E.m#a#F.D.H#N#G.d.EaR.Ob##w#1#L.t.a..",
"ae.j.7.A.vaq.v.7.m.E#c#a#i.B#i.C#c.A#e.G.9.v.d.LaEapbp#Y.t......",
"ak#I#e.Wafaf.5.5.W#3#h#G.A#G#h.G.W.6.i.i.6#z.A.nbEap#J..........",
"aA.mbn.i.x#b.q.U.qbj.y.x.y.R#b.q.U.sa3.s.q.i.G.na2ar............",
"aC#M.6.qacaB.N.f.N.N.f.f.N.f.w.w.Z.Z.Z.f.Q#b.GaQbDbq............",
"#R#8bJ#V.w#SaUba.V.h.r.r.h.r.e.e.e.r.V.I.fbN.vbFbu.a............",
"aaaA#z.w.I.h.J#d.p.8.l.l.l.c.c.l.8.p.J.ha5.U.obVbc..............",
".a#5bF.f.V.J.8.c.g.#.#.#.#.#.#.#.g.c.p.ea9.va2bh.k..............",
".kaTbLa8.h.p.c.#.#.#.#.#.#.#.#.#.#.gbT.e.y#0ap.X................",
"...kaP#Ka8.e.#.#.#.#.#.#.#.#.#.#.#.g.r.R#0#5aN.a................",
".....tbl#L#0a0.#.#.#.#.#.#.#.#.#.g.wah#K#A.X.a..................",
".......tav#9a.ah#T#7.pbS.gaM#7#Tahas#9bl.t......................",
"...........t#2bX#1a.#Qa1b.aWax#1bXbl#J.a........................",
".b..............bbajbDayayblajbd...............................b",
".b.............................................................b"
};
