/* XPM */
static char *bo[] = {
/* width height num_colors chars_per_pixel */
"    32    32      248            2",
/* colors */
".. c #c0c0c0",
".# c #00ff00",
".a c #bfbfbf",
".b c #bebfbe",
".c c #00da00",
".d c #bfc0bf",
".e c #00be00",
".f c #00d600",
".g c #00e400",
".h c #00e000",
".i c #00e600",
".j c #00e900",
".k c #00d100",
".l c #00f500",
".m c #c1c0c1",
".n c #00d200",
".o c #009d00",
".p c #00d000",
".q c #bfc1bf",
".r c #00e100",
".s c #00cf00",
".t c #00ce00",
".u c #00ef00",
".v c #00db00",
".w c #bec0be",
".x c #00dd00",
".y c #00d700",
".z c #006600",
".A c #00ea00",
".B c #00fa00",
".C c #00c500",
".D c #00b600",
".E c #00a000",
".F c #c0c1c0",
".G c #00b100",
".H c #edc4ed",
".I c #00f400",
".J c #00b400",
".K c #00af00",
".L c #c4c1c4",
".M c #00a500",
".N c #c1c1c1",
".O c #bdbebd",
".P c #00ee00",
".Q c #00cb00",
".R c #004800",
".S c #009f00",
".T c #00c000",
".U c #00bb00",
".V c #00d800",
".W c #00b800",
".X c #aac5aa",
".Y c #00cc00",
".Z c #009a00",
".0 c #00d300",
".1 c #bdbfbd",
".2 c #00ec00",
".3 c #bac0ba",
".4 c #d1c6d1",
".5 c #c0bec0",
".6 c #00aa00",
".7 c #007900",
".8 c #d7b8d7",
".9 c #bdaebd",
"#. c #4fbe4f",
"## c #00c800",
"#a c #00ba00",
"#b c #006e00",
"#c c #008c00",
"#d c #ccbecc",
"#e c #009800",
"#f c #005800",
"#g c #d6c3d6",
"#h c #d9c1d9",
"#i c #004d00",
"#j c #d6bbd6",
"#k c #009b00",
"#l c #00c600",
"#m c #5a765a",
"#n c #004200",
"#o c #c3c3c3",
"#p c #6fb16f",
"#q c #008800",
"#r c #858c85",
"#s c #007e00",
"#t c #c5cac5",
"#u c #089b08",
"#v c #a9c2a9",
"#w c #00e700",
"#x c #cecace",
"#y c #a6a7a6",
"#z c #c4c0c4",
"#A c #00f800",
"#B c #abb2ab",
"#C c #e5d8e5",
"#D c #2cb22c",
"#E c #ddcfdd",
"#F c #dcbddc",
"#G c #00a900",
"#H c #26c826",
"#I c #509c50",
"#J c #91c691",
"#K c #9ca29c",
"#L c #00a400",
"#M c #258a25",
"#N c #009600",
"#O c #007500",
"#P c #00e300",
"#Q c #0a720a",
"#R c #00d500",
"#S c #00dc00",
"#T c #d7afd7",
"#U c #c7bdc7",
"#V c #909990",
"#W c #239823",
"#X c #008a00",
"#Y c #496949",
"#Z c #31c231",
"#0 c #004f00",
"#1 c #d3c1d3",
"#2 c #00a200",
"#3 c #c6c3c6",
"#4 c #e1b7e1",
"#5 c #00f600",
"#6 c #4be24b",
"#7 c #569656",
"#8 c #00fb00",
"#9 c #d6bdd6",
"a. c #00ab00",
"a# c #053c05",
"aa c #00c100",
"ab c #46cd46",
"ac c #cfc9cf",
"ad c #d3cad3",
"ae c #00c700",
"af c #00c300",
"ag c #003600",
"ah c #007d00",
"ai c #007a00",
"aj c #00bf00",
"ak c #00d400",
"al c #58a958",
"am c #00fe00",
"an c #a1a5a1",
"ao c #005300",
"ap c #008f00",
"aq c #104e10",
"ar c #c2c0c2",
"as c #066506",
"at c #dbd3db",
"au c #cec1ce",
"av c #708c70",
"aw c #004c00",
"ax c #004600",
"ay c #56d956",
"az c #005b00",
"aA c #c7c1c7",
"aB c #00b300",
"aC c #c3b7c3",
"aD c #00df00",
"aE c #003500",
"aF c #00a600",
"aG c #007700",
"aH c #e7d8e7",
"aI c #d4bcd4",
"aJ c #c3c1c3",
"aK c #e4d2e4",
"aL c #d9bcd9",
"aM c #c5b4c5",
"aN c #00c400",
"aO c #c4b6c4",
"aP c #dac9da",
"aQ c #007100",
"aR c #006000",
"aS c #00e800",
"aT c #dcc2dc",
"aU c #00c200",
"aV c #c7bec7",
"aW c #dbc5db",
"aX c #255525",
"aY c #003100",
"aZ c #088a08",
"a0 c #00f200",
"a1 c #009700",
"a2 c #00cd00",
"a3 c #c5c3c5",
"a4 c #008400",
"a5 c #d3cdd3",
"a6 c #009200",
"a7 c #f5d4f5",
"a8 c #dfd3df",
"a9 c #cac4ca",
"b. c #6abc6a",
"b# c #d7c8d7",
"ba c #00f700",
"bb c #00e500",
"bc c #009300",
"bd c #2ccb2c",
"be c #c9c1c9",
"bf c #debcde",
"bg c #496c49",
"bh c #00de00",
"bi c #0cbd0c",
"bj c #c6c1c6",
"bk c #8d9f8d",
"bl c #c3c0c3",
"bm c #d7c2d7",
"bn c #00e200",
"bo c #ccc9cc",
"bp c #009100",
"bq c #0bb90b",
"br c #c3c2c3",
"bs c #00a700",
"bt c #00f900",
"bu c #cec0ce",
"bv c #00f300",
"bw c #00eb00",
"bx c #007600",
"by c #00b500",
"bz c #00d900",
"bA c #00f100",
"bB c #00ed00",
"bC c #00ca00",
"bD c #008e00",
"bE c #005d00",
"bF c #e8dae8",
"bG c #bdc0bd",
"bH c #d1c7d1",
"bI c #00ae00",
"bJ c #003000",
"bK c #00b000",
"bL c #009900",
"bM c #d0bfd0",
"bN c #e5d7e5",
"bO c #008300",
"bP c #00b900",
"bQ c #d7d0d7",
"bR c #006a00",
"bS c #008600",
"bT c #60ce60",
"bU c #dcc0dc",
"bV c #003200",
"bW c #c2c1c2",
"bX c #00bc00",
"bY c #cbc3cb",
"bZ c #008500",
"b0 c #dfd2df",
"b1 c #a1c0a1",
/* pixels */
"...............................................................a",
".a.............................................................a",
"................................................................",
".......................Oa5a5.Oa3a9.b............................",
".......m.N.abra5a9aJ.bboan#KaHbYaC.4bG..........................",
".....w#3aWbH.a#yaO#ga9#Eaq.RbkavaZaVaP.1........................",
"...wad.9#7#t.5az#uala7aC#O.Z.R#X.n#WaMb0.b......................",
".wbH#T#W.eas#M#a.v.G#m#7ae#eah.c.Aaa#Q.9#C.F.d..................",
"aA#d#W#l.PbLaE.DbX#O.R.R.n.E.T.u.h.k#L#i#V#C....................",
"#jb1.lbC.f.l#s.z#PbPaRagao.x.g.k#k#bbZ#ObV#rbF.b................",
"..a3aO#Hbv.ybK#e.#.#aF.7aY.S.y#sa4.7#0az#faY#Ba8.O..............",
".daIb1.I.#.jaf.E.u.#.f.M.zbE.o#N.A.VbcaR#f#na#ac#x.a............",
"..#db1ay.x.i.C.K.t.h.c.U#c#b.o#R.##5.QbD.z.zag#YbF..............",
"..bGbu#4#z#I#k.B.i.p.taf.S#XaB.g.#.#aSaB#qaibRbJ#yat.b..........",
".a...w#oa7av.J.#.B.v.f.QbI.o.U.j.#.#.la2.MapbOawaXb0#o..........",
".....LbMal.s.##8.l.j.h.paja1a.bb.#.#bt.v.e#LapaGaE#Kat.a........",
"....beaO#H.#.#.##AbB.r.yaUaiaF.n.Aba.I.r.Y.J.o#qaoaXb0bW........",
".....dbj#h#vab.f.i.g.c.x.Sah.TaN.kaD#P.x.n.ebsa6aGag#ybQ........",
".......qblaL#4#B#.#Hbibibx.W.0##.s#R.yaka2aa.K.o#q#ibgbN.d......",
"...........d.N#1bfaIaT#K#c.u.jbn#S.f.k.s.QaN.D#LbpaQaxaC#x......",
"...................L.H#7.e.#.#.B.2.c.n.k.t##.Ua..Z#q.RavbN.b....",
"..................aA#dbq.cam.#.#a0bhbz.fak.Yaj.G#2a6#baqb##x.b..",
"..................#9b1#w.j.i#8am.u.g.h#S.V.taU.D#G.Z#c#0bgbFa3.b",
".................m#4#6.#.##A.I.l.P.A.g.h.c.p.C#a.K#2#Na4#n#maK.N",
".a..............ar.8#6.#.#.#.##5bA.2#w.r.c.p#l.e.J.6.Ea1bS.zalaP",
".................F..#j.X#6.#.#.Ba0bw.iaD.V.sae.T.W.G.6.M#G#D#pau",
"...................qar.8#4.Xay.A.PaS.r.v.0.Y.C.e.Wby#Db..XaWbm.1",
".......................q.maI#4#U#JbTabbdbd#Z#.b.#J.3bmaT#1aJ.d..",
"...........................F.q#daLbf#F#9#9#hbUaT#hau.L.d........",
".....................................m#z#zar.m..................",
".a.............................................................a",
".a.............................................................a"
};
