/* XPM */
static char *magick[] = {
/* columns rows colors chars-per-pixel */
"32 32 164 2",
"   c black",
".  c #040403",
"X  c #050506",
"o  c #0b0b0c",
"O  c #131315",
"+  c #161618",
"@  c #181816",
"#  c #1d1d1f",
"$  c #21211f",
"%  c #232324",
"&  c #252526",
"*  c #29292b",
"=  c #2d2d2a",
"-  c #2c2c2d",
";  c #2e2e2c",
":  c #2f2f30",
">  c gray19",
",  c #313131",
"<  c #323233",
"1  c #343430",
"2  c #343431",
"3  c #353533",
"4  c #343435",
"5  c #363635",
"6  c gray22",
"7  c #393938",
"8  c #39393a",
"9  c #3a3a3a",
"0  c gray23",
"q  c #3b3b3d",
"w  c #3c3c3c",
"e  c gray24",
"r  c #3f3f3f",
"t  c #42423f",
"y  c gray25",
"u  c #414141",
"i  c #424243",
"p  c #434344",
"a  c #444440",
"s  c #444445",
"d  c #4e4e49",
"f  c #4e4e4a",
"g  c #4d4d4e",
"h  c #53534d",
"j  c #55554f",
"k  c #505053",
"l  c #575753",
"z  c #555556",
"x  c #59595a",
"c  c #60605c",
"v  c #63635d",
"b  c #656561",
"n  c #656567",
"m  c #676769",
"M  c #6a6a60",
"N  c #68686c",
"B  c #6c6c6e",
"V  c #6f6f72",
"C  c #73736a",
"Z  c #70706c",
"A  c #77776d",
"S  c #77776f",
"D  c #737375",
"F  c #7b7b73",
"G  c #7a7a7c",
"H  c red",
"J  c #f62825",
"K  c #f62926",
"L  c #f52f2b",
"P  c #f62c28",
"I  c #f43531",
"U  c #f33b36",
"Y  c #f1433e",
"T  c #ef4c46",
"R  c #ee504a",
"E  c #ed534d",
"W  c #ee524c",
"Q  c #ed5750",
"!  c #ed5851",
"~  c #ec5d56",
"^  c #f04641",
"/  c #e96a62",
"(  c #e86c64",
")  c #e7756c",
"_  c #e57d74",
"`  c #81817c",
"'  c #84847c",
"]  c #8b8b7f",
"[  c #e48278",
"{  c #e4857a",
"}  c #858581",
"|  c #8c8c89",
" . c #919187",
".. c #929287",
"X. c #95958e",
"o. c #9e9e93",
"O. c #a4a497",
"+. c #a4a498",
"@. c #a4a499",
"#. c #a9a99e",
"$. c #aeaea1",
"%. c #afafa2",
"&. c #ababb7",
"*. c #acacb8",
"=. c #b5b5a7",
"-. c #b8b8a9",
";. c #b1b1b5",
":. c #b5b5be",
">. c #bfbfb0",
",. c #bbbbc5",
"<. c #de9f93",
"1. c #dda296",
"2. c #dda397",
"3. c #dbac9f",
"4. c #d9baac",
"5. c #e28d82",
"6. c #e0968b",
"7. c #e0988c",
"8. c #ffb8aa",
"9. c #c0c0b2",
"0. c #c1c1b3",
"q. c #c4c4b3",
"w. c #c7c7b9",
"e. c #cacabb",
"r. c #cfcfbf",
"t. c #d6c7b8",
"y. c #d2d2bf",
"u. c #c3c3c9",
"i. c #c5c5c9",
"p. c #c9c9cf",
"a. c #d0d0c0",
"s. c #d1d1c1",
"d. c #d1d1c2",
"f. c #d2d2c2",
"g. c #d3d3c3",
"h. c #d4d4c0",
"j. c #d5d5c3",
"k. c #d4d4c4",
"l. c #d5d5c5",
"z. c #d5d5c7",
"x. c #d7d7c5",
"c. c #d6d6c6",
"v. c #d7d7c6",
"b. c #d7d7c7",
"n. c #d8d8c7",
"m. c #dbdbc7",
"M. c #d8d8c8",
"N. c #d9d9c8",
"B. c #dadac8",
"V. c #dadac9",
"C. c #dadaca",
"Z. c #dbdbca",
"A. c #dbdbcc",
"S. c #dcdcca",
"D. c #dcdccb",
"F. c #ddddcb",
"G. c #dcdccc",
"H. c #ddddcc",
"J. c #dedecc",
"K. c #dedece",
"L. c #dfdfcf",
"P. c #d0d0d6",
"I. c #e3e3cf",
"U. c #e6e6d2",
/* pixels */
"J.Z.k.k.k.k.k.k.k.k.k.k.k.k.k.k.k.k.k.k.k.k.k.k.k.k.k.k.k.k.k.N.",
"Z.k.k.k.k.k.k.k.k.k.k.k.k.k.k.k.k.k.k.k.k.k.k.k.k.k.k.k.k.k.k.c.",
"n.k.k.k.k.k.k.k.k.k.k.k.k.k.k.k.k.k.k.k.4.( T T T W ) 4.k.k.k.g.",
"k.k.k.k.k.k.k.k.k.k.k.k.k.k.k.k.k.k.k.R L _ 1.1.1.7.E E { k.k.l.",
"k.k.k.k.k.k.k.k.k.k.k.k.k.k.k.k.k.{ L R k.k.k.k.k.k.k.4.H k.k.f.",
"k.k.k.k.k.3.1.1.6.k.k.k.k.k.k.4.Y Y 4.k.k.k.k.k.k.k.k.k.I <.k.c.",
"M.k.k.k.~ T T T P I / / / / J L { k.k.k.k.k.k.k.k.k.k.k.I <.k.f.",
"G.k.k.[ K t.k.k.k.<./ / / / <.k.k.k.k.k.k.k.k.k.k.k.k.t.P <.k.k.",
"k.k.k.T 1.k.k.k.k.k.k.k.k.k.k.k.k.k.k.k.k.k.k.k.k.k.k.Q ~ k.k.k.",
"k.k.k.T 1.k.k.k.k.k.k.k.k.k.k.k.k.k.k.k.k.k.k.k.<.^ P R k.k.k.k.",
"k.k.k.W 7.k.k.k.k.k.k.k.k.k.k.k.k.k.k.k.k.k.4.Y R [ t.k.k.k.k.k.",
"Z.k.k.{ Y k.k.k.k.k.k.k.k.k.k.k.k.k.k.k.k.k.W ( k.k.k.k.k.k.k.k.",
"n.k.k.k.R L 4.k.k.k.k.k.k.k.k.k.k.k.k.k.k.H H H k.k.k.k.k.k.k.k.",
"V.k.k.k.k.{ U 5.t.k.k.k.k.k.k.k.k.k.k.k.{ 4.H H H H 8.k.k.k.k.k.",
"n.k.k.k.k.k.3.! H / k.k.k.k.k.k.k.k.k.3.U 4.H H H H H H 8.k.k.k.",
"N.k.k.k.k.k.z.k.k.R L ) 4.k.k.k.k.k.{ H 3.k.8.H H H H H k.k.k.k.",
"N.k.k.k.O.O.e.k.k.k.4.E Y Y E E E Y Y 4.k.k.k.H H H H 8.k.k.k.k.",
"n.k.k.k.O.O.L.k.k.k.k.k.k.4.2.2.2.4.k.k.k.k.k.H H H H H 8.k.k.k.",
"V.k.k.S O.j k.k.k.k.k.k.k.k.k.k.k.k.k.k.k.k.k.8.H 8.8.H H k.k.k.",
"n.k.k.e   0.k.k.k.k.k.k.k.k.k.k.k.k.k.k.k.k.k.8.k.k.k.8.H H k.k.",
"Z.k.>.  e k.k.k.k.k.k.k.k.k.k.k.k.k.k.k.k.k.k.k.k.k.k.k.8.c.k.k.",
"b.k.C   o.k.k.k.k.k.k.k.k.k.k.k.9.| Z c x g s ' U.h.m.y.x.r.k.k.",
"D.k.1   k.k.k.k.k.k.k.k.k.k.k.$.0 < q r p i 8 m P.i.p.u.p.l.k.k.",
"n.k.o = k.c.k.k.k.k.k.#.o.e.k.x * r y 0 w e 9 g } D G V ` e.k.k.",
"D.k.o 2 k.K.k.k.k.k.d       3 % 8 u e z } g 4 M I.j.B.k.k.S.k.k.",
"b.k.1 . k.k.k.k.k.A   v ] h @ X < 0 5 N k.n - b k.k.k.k.k.r.k.k.",
"k.k.S   O.k.k.k.k.  d k.k.k.K.> , 0 9 k B 9 : v k.k.A.k.k.v.k.k.",
"k.k.s.o   ..9.O..   d.k.k.k.k.f O < 6 7 9 5 > x ,.&.:.*.;.w.k.k.",
"k.k.k.q.$         =.k.k.k.M.k.-.; + + # & * % t X.} | ` ` M.k.k.",
"n.k.k.k.H.%. .@.k.k.k.k.k.k.k.k.a.+.F v l a 3 S k.k.k.B.F.g.k.k.",
"V.M.k.k.k.k.k.k.k.k.f.C.k.k.k.k.k.k.k.k.k.k.k.n.k.f.k.k.M.k.k.k.",
"N.c.g.l.f.c.f.c.f.c.f.c.g.l.g.k.k.k.k.k.k.k.k.k.k.k.k.k.k.k.k.k."
};
