/* XPM */
static char *long[] = {
/* width height num_colors chars_per_pixel */
"    32    32      245            2",
/* colors */
".. c #c0c0c0",
".# c #bfbfbf",
".a c #bfc0bf",
".b c #00d200",
".c c #bdbebd",
".d c #007300",
".e c #00c400",
".f c #00a900",
".g c #c1c1c1",
".h c #bec0be",
".i c #bdbfbd",
".j c #00c000",
".k c #009e00",
".l c #00a500",
".m c #c1c0c1",
".n c #009f00",
".o c #00af00",
".p c #00aa00",
".q c #003300",
".r c #00dc00",
".s c #00b100",
".t c #009600",
".u c #00c500",
".v c #008c00",
".w c #009800",
".x c #006b00",
".y c #00bc00",
".z c #004700",
".A c #0d9f0d",
".B c #c2c1c2",
".C c #00b400",
".D c #003200",
".E c #00f400",
".F c #007f00",
".G c #006c00",
".H c #bab3ba",
".I c #004f00",
".J c #6c936c",
".K c #e1c6e1",
".L c #00e100",
".M c #008500",
".N c #00ab00",
".O c #009a00",
".P c #a5a1a5",
".Q c #c5c2c5",
".R c #00dd00",
".S c #c9c8c9",
".T c #005500",
".U c #003d00",
".V c #c5bac5",
".W c #e0c9e0",
".X c #006200",
".Y c #00be00",
".Z c #bec1be",
".0 c #00b700",
".1 c #919a91",
".2 c #008600",
".3 c #cdc5cd",
".4 c #056b05",
".5 c #bebfbe",
".6 c #d5c2d5",
".7 c #c3c1c3",
".8 c #00ce00",
".9 c #95c195",
"#. c #d8ced8",
"## c #00cb00",
"#a c #ccc9cc",
"#b c #00ad00",
"#c c #25a725",
"#d c #d5c5d5",
"#e c #006800",
"#f c #978c97",
"#g c #007a00",
"#h c #f8d4f8",
"#i c #d5cfd5",
"#j c #c9c5c9",
"#k c #00d800",
"#l c #004500",
"#m c #005d00",
"#n c #4f7f4f",
"#o c #008f00",
"#p c #008a00",
"#q c #004d00",
"#r c #007600",
"#s c #00d300",
"#t c #00c100",
"#u c #0dc70d",
"#v c #00a600",
"#w c #006000",
"#x c #5ba15b",
"#y c #00d400",
"#z c #8fa48f",
"#A c #00e900",
"#B c #5fb95f",
"#C c #deccde",
"#D c #00cc00",
"#E c #1d3e1d",
"#F c #084608",
"#G c #009900",
"#H c #008200",
"#I c #2d752d",
"#J c #00ba00",
"#K c #00a000",
"#L c #001b00",
"#M c #00bf00",
"#N c #006400",
"#O c #d0cbd0",
"#P c #526c52",
"#Q c #1c4b1c",
"#R c #002d00",
"#S c #8caa8c",
"#T c #d7c5d7",
"#U c #d0ccd0",
"#V c #ddd8dd",
"#W c #bfb3bf",
"#X c #6f796f",
"#Y c #c6c0c6",
"#Z c #001f00",
"#0 c #00eb00",
"#1 c #005b00",
"#2 c #005c00",
"#3 c #359635",
"#4 c #e6d2e6",
"#5 c #d8d1d8",
"#6 c #081208",
"#7 c #009400",
"#8 c #c4c2c4",
"#9 c #003800",
"a. c #bebebe",
"a# c #005000",
"aa c #e6c3e6",
"ab c #00a200",
"ac c #00b900",
"ad c #78b778",
"ae c #003000",
"af c #d9c5d9",
"ag c #000000",
"ah c #00bd00",
"ai c #004200",
"aj c #d8cbd8",
"ak c #008b00",
"al c #009c00",
"am c #b3beb3",
"an c #008700",
"ao c #216e21",
"ap c #00b500",
"aq c #f2ddf2",
"ar c #122f12",
"as c #003b00",
"at c #d1c1d1",
"au c #cfc6cf",
"av c #007c00",
"aw c #3ba93b",
"ax c #009200",
"ay c #a3bba3",
"az c #075807",
"aA c #003600",
"aB c #ddc1dd",
"aC c #00b300",
"aD c #b8cdb8",
"aE c #bfbbbf",
"aF c #005800",
"aG c #018601",
"aH c #e6dae6",
"aI c #c6c4c6",
"aJ c #dccfdc",
"aK c #dec4de",
"aL c #dbbfdb",
"aM c #008e00",
"aN c #008400",
"aO c #007100",
"aP c #00c600",
"aQ c #d6c4d6",
"aR c #00e600",
"aS c #d2c1d2",
"aT c #009500",
"aU c #003e00",
"aV c #002000",
"aW c #00d700",
"aX c #9ca69c",
"aY c #dccbdc",
"aZ c #00a400",
"a0 c #91ae91",
"a1 c #008900",
"a2 c #00c900",
"a3 c #e0d6e0",
"a4 c #009300",
"a5 c #0b2b0b",
"a6 c #cdc8cd",
"a7 c #c5c3c5",
"a8 c #d5ced5",
"a9 c #948694",
"b. c #008d00",
"b# c #007800",
"ba c #004c00",
"bb c #4b734b",
"bc c #00ac00",
"bd c #006600",
"be c #00df00",
"bf c #005a00",
"bg c #f8d9f8",
"bh c #e2d1e2",
"bi c #009000",
"bj c #ccc6cc",
"bk c #70ad70",
"bl c #c5c5c5",
"bm c #008000",
"bn c #cac0ca",
"bo c #d5c8d5",
"bp c #cfc2cf",
"bq c #40a340",
"br c #d8c3d8",
"bs c #dccedc",
"bt c #bcbfbc",
"bu c #00db00",
"bv c #cec5ce",
"bw c #d8c9d8",
"bx c #d8c4d8",
"by c #bdc0bd",
"bz c #005700",
"bA c #128812",
"bB c #013f01",
"bC c #5e9d5e",
"bD c #00bb00",
"bE c #e9d7e9",
"bF c #0f520f",
"bG c #d8cdd8",
"bH c #dec0de",
"bI c #d3cfd3",
"bJ c #f3d6f3",
"bK c #00f000",
"bL c #005f00",
"bM c #c7c5c7",
"bN c #d2c7d2",
"bO c #b3b8b3",
"bP c #3e493e",
"bQ c #006e00",
"bR c #dacfda",
"bS c #008300",
"bT c #00ef00",
"bU c #bfc1bf",
"bV c #c0b8c0",
"bW c #003500",
"bX c #003f00",
"bY c #ddbddd",
/* pixels */
"...............................................................#",
".#.......................................................S.7.#.#",
".................................gbj.3.7.a........a.#a#VbM.V.Z..",
".............................c#aaJaEaEbraf.B.a.a#Ybhbj#P#6#S#..h",
"..........................a.#U.3bb.4.vaway.KaQ.6#Ta0bFaga#awaB.m",
"..........................bMbG#Q.z.v#v.p.lawbVaD#u#pasba.L#yamat",
"..........................a3#X#Zb#.t.o.j.0.jacaGa#aV#q#s.r##.9aL",
"........................#8#5#E.q#r.t.s.eaP.bal#Lagai.ya2.e#DadbH",
".......................i#ibEar.q.d#7.o.e#s.8#p#2#N.l#b.s#M.u#BbH",
".#...................cbI#Y.Ja5#R.Gb..f.j.bbean#2.Fak.w.f.0acadaB",
"....................#O.V#F#r.X#L.XaNab#J.8#0bS.q.xavaM.k.N.pamat",
"....................a3#P.Uabahae.Uav.w.s.u.r#kai.IaO#Haxbibq.K..",
"..................blaJ#EaF.O.b.k#Z#e.v.lbD###Abm.DbL.G.xbAbnbv.5",
".................aaH#Wa5#m#G.y#0bd#9.F.w.o.j.R#G#6#9az#n#Ybo.i..",
".#.............#bR.1.4.D.I#7.Cbu.raU#1a1.naC.Y#c#faXaEbsbv.i....",
"..............#U.HbWal#g#R.2.N.ubKaZaA.daM.kaT.9bg#ia6.m.a......",
".............iaq#f.U.p.8#lbf.n#J.b#AaF.D#w.x#x.K.g..............",
"...........5a8bO#Q.z#K.R.CaA#H.f#M#k.AbPbb#z.Wa7.a..............",
"..........#jaSaz.dbX#o#t.EaN.zax.f#K#B#hbsaj.B.a................",
".........caH#f#q.8#e#1aCaWaR.TaiaO#3bpbj.g......................",
"........#UbO#Q.Ta2.bba.2.Y#y.Aa9aXaQ.3by........................",
"......bUbJ#I.Mbz.ObTap.z#g.vadbgaj#8.h..........................",
".....#bR.1bB.e.n#m#t.LbA#X#zaf.g................................",
".....SbY.4bQak.E.M.Xa4.9#hbw...a................................",
".#.a#4#n#N.b.d#v.y.1#W#d.Z......................................",
".c#..P.d.tbc.0#I#S#4bN.a........................................",
"aIaBao#oahaG#xaY.K.a.a..........................................",
"#CbCan.o#3amaa.Q.h..............................................",
"bpbC#cbkaKbxby..................................................",
"btau.6#T.Q.h....................................................",
".#.m.7.g.......................................................#",
".#.............................................................#"
};
