/* XPM */
static char * image_name[] = {
"32 32 135 2",
"  	c #DEDEDEDECCCC",
". 	c #DBDBDBDBCACA",
"X 	c #D4D4D4D4C4C4",
"o 	c #D9D9D9D9C8C8",
"O 	c #D6D6D6D6C6C6",
"+ 	c #D8D8D8D8C7C7",
"@ 	c #D3D3D3D3C3C3",
"# 	c #FFFF00000000",
"$ 	c #D5D5D5D5C5C5",
"% 	c #D8D8D8D8C8C8",
"& 	c #E1E1E1E1D1D1",
"* 	c #D2D2D2D2C2C2",
"= 	c #DCDCDCDCCCCC",
"- 	c #DADADADAC9C9",
"; 	c #FFFFB8B8AAAA",
": 	c #D5D5D5D5C7C7",
"> 	c #A4A4A4A49797",
", 	c #CACACACABBBB",
"< 	c #DFDFDFDFCFCF",
"1 	c #777777776F6F",
"2 	c #555555554F4F",
"3 	c #3D3D3D3D3D3D",
"4 	c #000000000000",
"5 	c #C1C1C1C1B3B3",
"6 	c #BFBFBFBFB0B0",
"7 	c #D7D7D7D7C7C7",
"8 	c #737373736A6A",
"9 	c #9E9E9E9E9393",
"0 	c #C0C0C0C0B2B2",
"q 	c #8C8C8C8C8989",
"w 	c #707070706C6C",
"e 	c #606060605C5C",
"r 	c #595959595A5A",
"t 	c #4D4D4D4D4E4E",
"y 	c #444444444545",
"u 	c #848484847C7C",
"i 	c #E6E6E6E6D2D2",
"p 	c #D4D4D4D4C0C0",
"a 	c #DBDBDBDBC7C7",
"s 	c #D2D2D2D2BFBF",
"d 	c #D7D7D7D7C5C5",
"f 	c #CFCFCFCFBFBF",
"g 	c #DCDCDCDCCBCB",
"h 	c #343434343030",
"j 	c #AEAEAEAEA1A1",
"k 	c #3B3B3B3B3B3B",
"l 	c #323232323333",
"z 	c #3B3B3B3B3D3D",
"x 	c #3F3F3F3F3F3F",
"c 	c #434343434444",
"v 	c #424242424343",
"b 	c #393939393A3A",
"n 	c #676767676969",
"m 	c #D0D0D0D0D6D6",
"M 	c #C5C5C5C5C9C9",
"N 	c #C9C9C9C9CFCF",
"B 	c #C3C3C3C3C9C9",
"V 	c #0B0B0B0B0C0C",
"C 	c #2D2D2D2D2A2A",
"Z 	c #A9A9A9A99E9E",
"A 	c #292929292B2B",
"S 	c #404040404040",
"D 	c #3C3C3C3C3C3C",
"F 	c #3A3A3A3A3A3A",
"G 	c #858585858181",
"H 	c #737373737575",
"J 	c #7A7A7A7A7C7C",
"K 	c #6F6F6F6F7272",
"L 	c #818181817C7C",
"P 	c #343434343131",
"I 	c #DEDEDEDECECE",
"U 	c #4E4E4E4E4949",
"Y 	c #353535353333",
"T 	c #232323232424",
"R 	c #414141414141",
"E 	c #555555555656",
"W 	c #343434343535",
"Q 	c #6A6A6A6A6060",
"! 	c #E3E3E3E3CFCF",
"~ 	c #D5D5D5D5C3C3",
"^ 	c #DADADADAC8C8",
"/ 	c #DCDCDCDCCACA",
"( 	c #040404040303",
") 	c #777777776D6D",
"_ 	c #636363635D5D",
"` 	c #8B8B8B8B7F7F",
"' 	c #535353534D4D",
"] 	c #181818181616",
"[ 	c #050505050606",
"{ 	c #363636363535",
"} 	c #686868686C6C",
"| 	c #656565656767",
" .	c #2C2C2C2C2D2D",
"..	c #656565656161",
"X.	c #303030303030",
"o.	c #313131313131",
"O.	c #505050505353",
"+.	c #6C6C6C6C6E6E",
"@.	c #2F2F2F2F3030",
"#.	c #DBDBDBDBCCCC",
"$.	c #D7D7D7D7C6C6",
"%.	c #D1D1D1D1C1C1",
"&.	c #929292928787",
"*.	c #D1D1D1D1C2C2",
"=.	c #4E4E4E4E4A4A",
"-.	c #131313131515",
";.	c #383838383838",
":.	c #393939393838",
">.	c #BBBBBBBBC5C5",
",.	c #ABABABABB7B7",
"<.	c #B5B5B5B5BEBE",
"1.	c #ACACACACB8B8",
"2.	c #B1B1B1B1B5B5",
"3.	c #C7C7C7C7B9B9",
"4.	c #C4C4C4C4B3B3",
"5.	c #212121211F1F",
"6.	c #B5B5B5B5A7A7",
"7.	c #B8B8B8B8A9A9",
"8.	c #2E2E2E2E2C2C",
"9.	c #161616161818",
"0.	c #1D1D1D1D1F1F",
"q.	c #252525252626",
"w.	c #424242423F3F",
"e.	c #959595958E8E",
"r.	c #DDDDDDDDCCCC",
"t.	c #AFAFAFAFA2A2",
"y.	c #919191918787",
"u.	c #A4A4A4A49999",
"i.	c #D0D0D0D0C0C0",
"p.	c #A4A4A4A49898",
"a.	c #7B7B7B7B7373",
"s.	c #575757575353",
"d.	c #444444444040",
"f.	c #DDDDDDDDCBCB",
"g.	c #DADADADACACA",
"  . X X X X X X X X X X X X X X X X X X X X X X X X X X X X X o ",
". X X X X X X X X X X X X X X X X X X X X X X X X X X X X X X O ",
"+ X X X X X X X X X X X X X X X X X X X X X X X X X X X X X X @ ",
". X X # X # # # X X # # # X X # # # X X # # # X X X X X X X X $ ",
"% & X # X X X X X X X X X X X X X X X X X X # X X X X X X X X * ",
"= X X X X X X X X X X X X X X X X X X X X X # X X X X X X X X O ",
"% X X X X X X X X X X X X X X X X X X X X X X X X X X X X X X * ",
"= X X # X = X X X X X X X X X X X X X X X X X X X X X X X X X X ",
"X X X # X X X X X X X X X X X X X X X X X X # X X X X X X X X X ",
"X X X # X X X X X X X X X X X X X X X X X X # X X X X X X X X X ",
"X X X X X X X X X X X X X X X X X X X X X X # X X X X X X X X X ",
". X X X X X X X X X X X X X X X X X X X X X X X X X X X X X X X ",
"+ X X X # # # X X # # # X X # # # X X # # # # # X X X X X X X X ",
"- X X X X X X X X X X X X X X X X X X X X X # # # # ; X X X X X ",
"+ X X X X X X X X X X X X X X X X X X X X X # # # # # # ; X X X ",
"o X X X X X : X X X X X X X X X X X X X X X ; # # # # # X X X X ",
"o X X X > > , X X X X X X X X X X X X X X X X # # # # ; X X X X ",
"+ X X X > > < X X X X X X X X X X X X X X X X # # # # # ; X X X ",
"- X X 1 > 2 X X X X X X X X X X X X X X X X X ; # ; ; # # X X X ",
"+ X X 3 4 5 X X X X X X X X X X X X X X X X X ; X X X ; # # X X ",
". X 6 4 3 X X X X X X X X X X X X X X X X X X X X X X X ; O X X ",
"7 X 8 4 9 X X X X X X X X X X X 0 q w e r t y u i p a s d f X X ",
"g X h 4 X X X X X X X X X X X j k l z x c v b n m M N B N $ X X ",
"+ X V C X O X X X X X Z 9 , X r A x S k D 3 F t G H J K L , X X ",
"g X V P X I X X X X U 4 4 4 Y T b R 3 E G t W Q ! ~ ^ X X / X X ",
"7 X h ( X X X X X ) 4 _ ` ' ] [ l k { } X |  ...X X X X X f X X ",
"X X 1 4 > X X X X 4 U X X X I X.o.k F O.+.F @._ X X #.X X $.X X ",
"X X %.V 4 &.0 > ( 4 *.X X X X =.-.l ;.:.F { X.r >.,.<.1.2.3.X X ",
"X X X 4.5.4 4 4 4 6.X X X % X 7.8.9.9.0.q.A T w.e.G q L L % X X ",
"+ X X X r.t.y.u.X X X X X X X X i.p.a._ s.d.Y 1 X X X ^ f.@ X X ",
"- % X X X X X X X X * g.X X X X X X X X X X X + X * X X % X X X ",
"o O @ $ * O * O * O * O @ $ @ X X X X X X X X X X X X X X X X X "};
