/* XPM */
static char *naut[] = {
/* width height num_colors chars_per_pixel */
"    32    32      244            2",
/* colors */
".. c #c0c0c0",
".# c #00ca00",
".a c #00c700",
".b c #00af00",
".c c #bfc0bf",
".d c #bfbfbf",
".e c #00ce00",
".f c #00a800",
".g c #00cd00",
".h c #00b600",
".i c #00b900",
".j c #00d000",
".k c #00b500",
".l c #00c600",
".m c #00bc00",
".n c #00cc00",
".o c #00c800",
".p c #00bf00",
".q c #00cb00",
".r c #00c100",
".s c #00c500",
".t c #00ae00",
".u c #00be00",
".v c #00c300",
".w c #00cf00",
".x c #009e00",
".y c #00b200",
".z c #00b100",
".A c #00ba00",
".B c #00d100",
".C c #00ad00",
".D c #bebfbe",
".E c #00c900",
".F c #bec0be",
".G c #00d200",
".H c #00ac00",
".I c #00b300",
".J c #00bd00",
".K c #00c400",
".L c #009f00",
".M c #00b700",
".N c #00a100",
".O c #009600",
".P c #008700",
".Q c #00a300",
".R c #00d300",
".S c #00aa00",
".T c #00c000",
".U c #00b000",
".V c #ddd6dd",
".W c #00ab00",
".X c #bdc0bd",
".Y c #006a00",
".Z c #009800",
".0 c #00a400",
".1 c #008600",
".2 c #009900",
".3 c #008f00",
".4 c #00d400",
".5 c #008e00",
".6 c #00b400",
".7 c #00d500",
".8 c #00a900",
".9 c #c0c1c0",
"#. c #00d600",
"## c #00a600",
"#a c #007b00",
"#b c #00a000",
"#c c #828482",
"#d c #c1c1c1",
"#e c #009c00",
"#f c #c5c5c5",
"#g c #009300",
"#h c #e1d5e1",
"#i c #008200",
"#j c #008a00",
"#k c #adbdad",
"#l c #00b800",
"#m c #006f00",
"#n c #acb7ac",
"#o c #00a200",
"#p c #007600",
"#q c #008c00",
"#r c #006500",
"#s c #c5c4c5",
"#t c #04ba04",
"#u c #005500",
"#v c #bdbebd",
"#w c #31b331",
"#x c #003a00",
"#y c #cdcbcd",
"#z c #e6c7e6",
"#A c #009b00",
"#B c #e4dce4",
"#C c #003200",
"#D c #00d900",
"#E c #007900",
"#F c #d9c1d9",
"#G c #009d00",
"#H c #004700",
"#I c #cec8ce",
"#J c #dccddc",
"#K c #006900",
"#L c #d8d0d8",
"#M c #00c200",
"#N c #00bb00",
"#O c #e6cfe6",
"#P c #d7c7d7",
"#Q c #002d00",
"#R c #e0c1e0",
"#S c #009200",
"#T c #809c80",
"#U c #cabeca",
"#V c #cec1ce",
"#W c #e6c3e6",
"#X c #c6c5c6",
"#Y c #d7c2d7",
"#Z c #cfc0cf",
"#0 c #9ba89b",
"#1 c #048104",
"#2 c #d1cdd1",
"#3 c #97bc97",
"#4 c #dcc6dc",
"#5 c #00a500",
"#6 c #216721",
"#7 c #a5bca5",
"#8 c #004d00",
"#9 c #7bb87b",
"a. c #c4bdc4",
"a# c #d5c0d5",
"aa c #5e7b5e",
"ab c #b8b9b8",
"ac c #d8d3d8",
"ad c #c2c2c2",
"ae c #dcc0dc",
"af c #dcd7dc",
"ag c #007800",
"ah c #dcc4dc",
"ai c #e2c1e2",
"aj c #dcbfdc",
"ak c #6dbb6d",
"al c #c3bbc3",
"am c #7b877b",
"an c #e4d8e4",
"ao c #002b00",
"ap c #a0a1a0",
"aq c #e0c6e0",
"ar c #919091",
"as c #435e43",
"at c #559e55",
"au c #c9c1c9",
"av c #ddc7dd",
"aw c #e3c4e3",
"ax c #e1d3e1",
"ay c #dbc0db",
"az c #c2c0c2",
"aA c #002900",
"aB c #bec1be",
"aC c #c8c7c8",
"aD c #bebebe",
"aE c #002100",
"aF c #d2c2d2",
"aG c #008d00",
"aH c #6f696f",
"aI c #b8b7b8",
"aJ c #007400",
"aK c #005d00",
"aL c #c5c0c5",
"aM c #9bb79b",
"aN c #d4c5d4",
"aO c #005200",
"aP c #003500",
"aQ c #1f3d1f",
"aR c #dac3da",
"aS c #1dac1d",
"aT c #00e100",
"aU c #007d00",
"aV c #bcbebc",
"aW c #c7bdc7",
"aX c #8abb8a",
"aY c #0dc00d",
"aZ c #91bf91",
"a0 c #00d700",
"a1 c #68b168",
"a2 c #008000",
"a3 c #568256",
"a4 c #9cbf9c",
"a5 c #b7b1b7",
"a6 c #007100",
"a7 c #c1c0c1",
"a8 c #ddd3dd",
"a9 c #009a00",
"b. c #004f00",
"b# c #babcba",
"ba c #004b00",
"bb c #008900",
"bc c #009400",
"bd c #002400",
"be c #767a76",
"bf c #dec0de",
"bg c #c3c0c3",
"bh c #e2c2e2",
"bi c #007200",
"bj c #5ab65a",
"bk c #d4c3d4",
"bl c #5d6b5d",
"bm c #3f973f",
"bn c #d2c1d2",
"bo c #64af64",
"bp c #158b15",
"bq c #8fb48f",
"br c #ddc9dd",
"bs c #106b10",
"bt c #898f89",
"bu c #5a6f5a",
"bv c #006d00",
"bw c #005c00",
"bx c #009000",
"by c #6d756d",
"bz c #dbd6db",
"bA c #5da85d",
"bB c #3b5a3b",
"bC c #26c326",
"bD c #80b580",
"bE c #00a700",
"bF c #ddc5dd",
"bG c #e3c2e3",
"bH c #57be57",
"bI c #009100",
"bJ c #d9d4d9",
"bK c #008100",
"bL c #ddcfdd",
"bM c #c2c9c2",
"bN c #cdc2cd",
"bO c #ddbfdd",
"bP c #d4bed4",
"bQ c #cdbdcd",
"bR c #c6c1c6",
"bS c #d5c1d5",
"bT c #88bf88",
"bU c #044104",
"bV c #c7bcc7",
"bW c #515d51",
"bX c #e1d7e1",
/* pixels */
"...............................................................d",
".d.............................................................d",
"................................................................",
"................................................................",
"...................cau#Za##FajbO#F#VaL..........................",
"...............c#V#R#Uab#7aZ#9akaZaVbPbOaybR.F..................",
"...........FaFbGa.akaY.a.#.e.B.G.j.nbCbHbTbPae.9.c..............",
".........caqb#bj#t.l.e.j.B.G.R.4.7#.#..7.wbC#7#W#V.X............",
".....c.9#zaM.z.T.o.q.#.q.n.n.e.w.B.G.R.7#..R.EbHbQ#RaB..........",
".d.c.9#zbq.W.T.s.s.s.s.s.l.l.a.#.n.g.w.B.R.4.4.gaY#3ai.F........",
"...caqbD.Q#N.r.r.T.p.u.u.u.p.r.K.l.o.n.w.j.B.G.G.w.J#7bh.X......",
".DaNab#A.h.m.m.m.A#l.h.h.h.h.A.J.p.K.a.#.g.e.j.j.j.##taW#Y.X....",
"..awbm.0.i.i.i.M.I.z.t.H.H.C.y.k.i.p.v.l.E.n.e.w.w.e.KaSbfbN.F..",
"#P#n.3.b.k.h.k.z.C.f.Q.N.N.0.f.t.k.i.u.v.a.#.g.g.g.g.q.m#wbGaz.c",
"#4bm.Z.U.I.I.z.C##.x.Z#g#g.Z.x.f.b.k.m.r.l.o.#.n.n.q.#.a.zbDah.F",
"#Ubp#b.t.y.z.t.f.L.Obb#i#i#j.O.N.S.6#N.p.v.l.o.#.q.#.E.a.AaSaRbg",
"aI#1.x.H.U.U.C###e#j#E#ma6aU.3.L.S.I.i.u.r.s.o.E.#.#.E.l.T.S#kbk",
"#0aU.L.8.t.b.t.f#e.1bv#r.Yag.5.x.8.y.i.u.r.s.a.o.#.#.E.l.v.ba1aw",
"#T#E.L.f.C.U.b.H#o#S#paPba.P#S.x.S.k.J.p.K.o.q.e.j.B.j.g.a#laSbS",
"#0#m.O.Q.W.b.y.y.t.f.0b.#K.M.J.v.v.f.f.i.k.k.k.h.M.A.p.K.#.e.ma4",
"albs.P.x.f.b.6.M.A.m.aaT#D.q.g.n.a#Abc.M.HbE.L.O#qa2aJ#rbw#u#ubm",
"#P#6#p.2.Q.W.y.i.p.a.j#Da0.e.o#M.m#q#TbMa4aX#9akbobAatata3buaHar",
"axaaaO.5.2#5.b.h.J.s.q.e.g.o#M.A.bbiap#O#YaRahbFavavbr#JbLa8af#2",
"#ybVbU.Ybx#G#5.C.h.m.r.v.r.u.h.b.5bsbn#X..............#da7......",
"#vbXbt#C#aaG.O#o.8.b.I.6.y.t##a9#8am#h.D........................",
".dadanasbd#K.PbI.O#G#b.N.x.2.3#HbB#J#f..........................",
"...DaC#hbyaE#H.Y#a.1.P.1bKaK#QbBax#y.D..........................",
".....D#X#BapaQaA#Q#x#xaPaoaQ#c#L#y#v............................",
".......c.dac#La5#cbWblbear#IbX#faD..............................",
"...........c#s#2bz.V.V.VbJ#X.D..................................",
".d................#d...........................................d",
".d.............................................................d"
};
