/* XPM */
static char *pyr[] = {
/* width height num_colors chars_per_pixel */
"    32    32      247            2",
/* colors */
".. c #c0c0c0",
".# c #00e400",
".a c #bfbfbf",
".b c #00e600",
".c c #00db00",
".d c #00df00",
".e c #00e500",
".f c #00e300",
".g c #00e200",
".h c #00d300",
".i c #00d800",
".j c #00d700",
".k c #00bd00",
".l c #bfc0bf",
".m c #00c300",
".n c #00dd00",
".o c #00e100",
".p c #00ce00",
".q c #bebfbe",
".r c #00da00",
".s c #00dc00",
".t c #009900",
".u c #00cc00",
".v c #00c900",
".w c #00b700",
".x c #00cf00",
".y c #00a300",
".z c #008f00",
".A c #00d200",
".B c #00c200",
".C c #00de00",
".D c #00b400",
".E c #00bf00",
".F c #00cd00",
".G c #00d600",
".H c #007600",
".I c #007200",
".J c #00d000",
".K c #00aa00",
".L c #00c800",
".M c #00b500",
".N c #00a800",
".O c #00e700",
".P c #005400",
".Q c #00d400",
".R c #bebebe",
".S c #bec1be",
".T c #00a000",
".U c #003a00",
".V c #004d00",
".W c #00c400",
".X c #b9c4b9",
".Y c #d9d1d9",
".Z c #00c500",
".0 c #00c100",
".1 c #00bc00",
".2 c #00ae00",
".3 c #009a00",
".4 c #009b00",
".5 c #006800",
".6 c #000500",
".7 c #cdc7cd",
".8 c #009800",
".9 c #00a500",
"#. c #007d00",
"## c #00ac00",
"#a c #e4dce4",
"#b c #105a10",
"#c c #003f00",
"#d c #dfbddf",
"#e c #c6c6c6",
"#f c #00b300",
"#g c #aaacaa",
"#h c #008100",
"#i c #00bb00",
"#j c #001c00",
"#k c #00d500",
"#l c #007000",
"#m c #bdbebd",
"#n c #00e000",
"#o c #008000",
"#p c #005b00",
"#q c #bdbfbd",
"#r c #006e00",
"#s c #00c600",
"#t c #00ca00",
"#u c #deccde",
"#v c #b6aeb6",
"#w c #006300",
"#x c #009500",
"#y c #007e00",
"#z c #041204",
"#A c #a5a5a5",
"#B c #41c841",
"#C c #c2c0c2",
"#D c #d1cbd1",
"#E c #008c00",
"#F c #009600",
"#G c #91c091",
"#H c #007b00",
"#I c #00b600",
"#J c #d4bfd4",
"#K c #dcd9dc",
"#L c #009300",
"#M c #00a100",
"#N c #dfd5df",
"#O c #005100",
"#P c #00b000",
"#Q c #3d553d",
"#R c #bec0be",
"#S c #004300",
"#T c #c6c3c6",
"#U c #bebbbe",
"#V c #dad8da",
"#W c #2a6d2a",
"#X c #1ed31e",
"#Y c #00f000",
"#Z c #00cb00",
"#0 c #006b00",
"#1 c #008600",
"#2 c #009000",
"#3 c #a59ca5",
"#4 c #008a00",
"#5 c #cbbdcb",
"#6 c #053705",
"#7 c #00a600",
"#8 c #d5cad5",
"#9 c #4e874e",
"a. c #b4b4b4",
"a# c #00b200",
"aa c #c1c1c1",
"ab c #d6cfd6",
"ac c #002c00",
"ad c #dbd0db",
"ae c #bdc1bd",
"af c #006000",
"ag c #909b90",
"ah c #d8d2d8",
"ai c #00b900",
"aj c #00c700",
"ak c #005e00",
"al c #e6d7e6",
"am c #ddbcdd",
"an c #006500",
"ao c #004800",
"ap c #007300",
"aq c #eee3ee",
"ar c #cfbfcf",
"as c #00a700",
"at c #00d100",
"au c #77c177",
"av c #001700",
"aw c #34c934",
"ax c #d2c8d2",
"ay c #00a200",
"az c #009100",
"aA c #c4bbc4",
"aB c #cfc1cf",
"aC c #003b00",
"aD c #008900",
"aE c #c4c0c4",
"aF c #004100",
"aG c #00ab00",
"aH c #cac9ca",
"aI c #006a00",
"aJ c #00a900",
"aK c #007800",
"aL c #024c02",
"aM c #decbde",
"aN c #1fcb1f",
"aO c #abbaab",
"aP c #6b886b",
"aQ c #005600",
"aR c #007a00",
"aS c #e0bbe0",
"aT c #006200",
"aU c #006600",
"aV c #00ad00",
"aW c #ddc5dd",
"aX c #697869",
"aY c #008400",
"aZ c #e1bfe1",
"a0 c #033103",
"a1 c #00e900",
"a2 c #00c000",
"a3 c #e5bae5",
"a4 c #00a400",
"a5 c #c3c2c3",
"a6 c #f1b9f1",
"a7 c #006700",
"a8 c #000000",
"a9 c #d3bdd3",
"b. c #00d900",
"b# c #008d00",
"ba c #0d7e0d",
"bb c #b9bab9",
"bc c #697169",
"bd c #276127",
"be c #001500",
"bf c #183f18",
"bg c #d9d5d9",
"bh c #d0cad0",
"bi c #bfc1bf",
"bj c #299729",
"bk c #a2bca2",
"bl c #c0c1c0",
"bm c #e6d6e6",
"bn c #008500",
"bo c #006c00",
"bp c #d9ced9",
"bq c #d0ccd0",
"br c #587e58",
"bs c #c5c1c5",
"bt c #165a16",
"bu c #b1b1b1",
"bv c #e3dfe3",
"bw c #358035",
"bx c #005300",
"by c #003900",
"bz c #979d97",
"bA c #d1c1d1",
"bB c #047e04",
"bC c #beb6be",
"bD c #5f6c5f",
"bE c #00e800",
"bF c #c3c1c3",
"bG c #008800",
"bH c #798079",
"bI c #dfd9df",
"bJ c #b6b2b6",
"bK c #005f00",
"bL c #c5bac5",
"bM c #002900",
"bN c #e1c2e1",
"bO c #00be00",
"bP c #e6bee6",
"bQ c #00ea00",
"bR c #d7bed7",
"bS c #00b800",
"bT c #e2b8e2",
"bU c #00b100",
"bV c #c4c3c4",
"bW c #197319",
"bX c #000f00",
"bY c #002f00",
"bZ c #2f5b2f",
"b0 c #007c00",
/* pixels */
"...........................R.7.X#gbTarae.......................a",
".a.......................laHaWbWba#9.Xar#R.....................a",
".........................aalaPaI.Q#Y#Xa3bs......................",
".......................qbg#3bM.t.L.n#naua3.S....................",
".....................lbVaq#QaQ.2.v.cbQ.faO#J....................",
".....................aalaXaoay.k.J.dbE#Y#Ba6bi..................",
"....................ab#A#j#0.4.M.L#k.s.n.JbkaZae................",
"...................qaq#QbXa7#E.K.E.p.i.d.O.i#U#J#R..............",
"................#m#Nbu#6#wazaGbO.u.j.d.#.ba1aNamaE..............",
".a.............RahaAa0#p#2.y#f.B.F.j.C.#.Oa1.o#Gam..............",
"..............#eadbf.UaRaz#7#I.m.x.j.C.f.b.O.b#Ba6bl............",
".............a#abDavan#.#x.N.w.W.p.G.n.g.e.b.n.W#GbP.S..........",
".............7#Uav.UaU#y#xas#I.B.u.h.i.c.c.jat.c.QbkaZae........",
"............#KbHa8#c#pap#4.3.N.D.k.Z#t.J#k.r.f.e.g.xbL#J.S......",
".a........#maqaXbXaC.Pbo#o#x#7a#.E#t.A.r#n.f.#.f.f.oawaSbF......",
"........#mbp#CbtaT.HbG.t.9a#.k.Z.F.h.i.c.C.g.#.#.e.#.c#G#d.l....",
".......qbh#8bt.V.IaY#L.T##.M.k.Z.u.A.j.s.d.o.#.e.e.e.faN#dbF....",
"......#Tbm#WaF.5aKaD.8.y.2.w.E#s.F.A.i.c.d.g.#.b.b.b.e.rbkbR....",
".....qalaPbyaf#l#o.z.4as#Pai.0.L.p.h.j.c#n.f.e.b.O.b.e.d#B#d....",
"...qaba.aC#Oa7.H#1#x.T.K#f#i.B.L.x.Q.i.c.d.g.#.b.b.b.#.oaNa9bs..",
"..a5#Nbd.Uak#0b0#4.8ay##.D.1.m.v.p.Q.i.s.d.g.#.e.b.e.#.g.0#U#5..",
".q.Ybzac#Oaf#l#ob#.ta4aV.M.k.m.v.x.h.j.c.C.o.f.#.#.#.g.saNa9bs..",
"#C.YbZbY.PaT.I#h.z.4a4aV.M.1.m.v.p.h.G.r.n.d.o.f.f.g.n.AauaZ.l..",
"bqa.ac#c.P#w.I#h.z.3.y##.D#i.Baj.Fat#k.i.c.C.d.d.d.cb..mbbbA....",
"ahbz#j#S.P#wap#h.z.t.yaG#f#ia2#s#Z.x.h.G.i.r.rb..j.s.kbjbNaa....",
"bIaXbX#c.Vak#r#y#E#F.T.N#P.w.k.Baj#t.p.J.A.h.h.h.G.kbB#vax.l....",
"#KbH.6byaoaQaU.HaY.z.8#MaJbU.w#ia2.m#s.v#Z.u.u.W.ybabC#u#q......",
"aH.7beav#S.VbK#r#H#1#2.t#MaJ.2.DbS.1.E.0.m.w.3#.bwbL#u#q........",
".R#KbHa8be#cbxan.I#Hbn.z.8.T.9.N.K.K.9.4aDaK#9#AaWax#q..........",
".a..bvbz#za8avbY.V#p.5#l.H#.#oaR#l.5aIbWbra.aMbpa5.l............",
".a.a..#VbVbzbc#Qbf#6by#SaL#b#bbdbragbuaBaMax...l...............a",
".a.....RaH#VbI.YaE#gbz#A#gbJbCaB#uad#D#T.......................a"
};
SIMPLE  =                    T                                                  BITPIX  =                    8                                                  NAXIS   =                    2                                                  NAXIS1  =                   32                                                  NAXIS2  =                   32                                                  HISTORY Written by XV 3.10a(PNG)                                                END                                                                                                                                                                                                                                                                                                                                                                                                                                                                                                                                                                                                                                                                                                                                                                                                                                                                                                                                                                                                                                                                                                                                                                                                                                                                                                                                                                                                                                                                                                                                                                                                                                                                                                                                                                                                                                                                                                                                                                                                                                                                                                                                                                                                                                                                                                                                                                                                                                                                                             ©юю╬иыэуб╚ ╔╚╢╨хуундююююююююююю©©©юыц mI+!'55Dk∙╠хтмю©ююююююю©©юА &-48;>@=845Fk╢тсб©юююююю╬з|
)29=BGLPRTUURMD<j╔ям╬юююююий
