/* XPM */
static char * image_name[] = {
"32 32 144 2",
"  	c #C0C0C1C1BFBF",
". 	c #BDBDBDBDBBBB",
"X 	c #838369696A6A",
"o 	c #767656565656",
"O 	c #73734B4B4B4B",
"+ 	c #737345454646",
"@ 	c #76764A4A4949",
"# 	c #7C7C59595959",
"$ 	c #C0C0BFBFC0C0",
"% 	c #91917D7D7B7B",
"& 	c #777751515252",
"* 	c #72723E3E3E3E",
"= 	c #75753B3B3B3B",
"- 	c #7A7A3D3D3D3D",
"; 	c #828241414040",
": 	c #868642424242",
"> 	c #7D7D3E3E3E3E",
", 	c #76764E4E4E4E",
"< 	c #8D8D78787878",
"1 	c #C1C1BFBFBFBF",
"2 	c #7B7B57575858",
"3 	c #8E8E48484747",
"4 	c #95954A4A4A4A",
"5 	c #98984D4D4B4B",
"6 	c #9A9A4D4D4D4D",
"7 	c #98984B4B4D4D",
"8 	c #888844444343",
"9 	c #7A7A53535454",
"0 	c #939381818080",
"q 	c #6F6F44444444",
"w 	c #888843434343",
"e 	c #929249494949",
"r 	c #9D9D4E4E4E4E",
"t 	c #A2A251515151",
"y 	c #A8A854545353",
"u 	c #A7A755555454",
"i 	c #AAAA55555555",
"p 	c #A7A753535454",
"a 	c #8A8A45454545",
"s 	c #717142424242",
"d 	c #94947F7F7F7F",
"f 	c #6F6F42424242",
"g 	c #8E8E47474747",
"h 	c #ACAC55555555",
"j 	c #B1B159595959",
"k 	c #B5B55A5A5A5A",
"l 	c #B8B85B5B5C5C",
"z 	c #939380807F7F",
"x 	c #B0B057575858",
"c 	c #B7B75B5B5C5C",
"v 	c #BFBF5F5F6060",
"b 	c #C2C261616161",
"n 	c #C5C562626262",
"m 	c #BDBD5E5E5E5E",
"M 	c #B7B75C5C5B5B",
"N 	c #A1A150504F4F",
"B 	c #919148484747",
"V 	c #C0C061615F5F",
"C 	c #C8C863636464",
"Z 	c #CACA65656565",
"A 	c #C7C764646464",
"S 	c #9F9F50504F4F",
"D 	c #909047474747",
"F 	c #BDBDBBBBBCBC",
"G 	c #8A8A76767575",
"H 	c #878744444343",
"J 	c #A9A953535353",
"K 	c #C8C863636363",
"L 	c #CDCD66666666",
"P 	c #D2D268686969",
"I 	c #CFCF67676868",
"U 	c #8D8D78787777",
"Y 	c #D6D66A6A6A6A",
"T 	c #D7D76C6C6B6B",
"R 	c #7E7E3F3F4040",
"E 	c #6F6F3D3D3E3E",
"W 	c #DADA6D6D6D6D",
"Q 	c #DDDD6E6E6E6E",
"! 	c #888843434545",
"~ 	c #8F8F48484848",
"^ 	c #DEDE6F6F7070",
"/ 	c #E3E374747373",
"( 	c #E8E878787676",
") 	c #E6E676767676",
"_ 	c #818165656666",
"` 	c #7A7A56565656",
"' 	c #BFBF60606060",
"] 	c #F2F286868686",
"[ 	c #F9F999999999",
"{ 	c #F4F48A8A8989",
"} 	c #E7E777777878",
"| 	c #DFDF70706F6F",
" .	c #808040403F3F",
"..	c #E3E373737373",
"X.	c #FCFCB0B0B0B0",
"o.	c #FEFED9D9DADA",
"O.	c #FEFEB5B5B6B6",
"+.	c #F3F387878888",
"@.	c #D0D067676868",
"#.	c #78784E4E4E4E",
"$.	c #717147474848",
"%.	c #D8D86B6B6B6B",
"&.	c #E8E877777777",
"*.	c #F8F896969696",
"=.	c #FFFFD5D5D5D5",
"-.	c #FEFEFAFAF9F9",
";.	c #FFFFFCFCFBFB",
":.	c #E8E878787878",
">.	c #B8B85B5B5B5B",
",.	c #FEFED0D0CFCF",
"<.	c #FEFEFDFDFCFC",
"1.	c #FEFEDCDCDDDD",
"2.	c #E8E877777878",
"3.	c #D7D76C6C6C6C",
"4.	c #FCFCACACADAD",
"5.	c #F2F288888989",
"6.	c #E3E374747575",
"7.	c #D7D76B6B6C6C",
"8.	c #787850504F4F",
"9.	c #BFBF60605E5E",
"0.	c #CECE68686767",
"q.	c #DEDE70707070",
"w.	c #F7F79A9A9999",
"e.	c #E7E778787777",
"r.	c #000000000000",
"t.	c #020200000101",
"y.	c #8C8C76767878",
"u.	c #868643434444",
"i.	c #C7C764646363",
"p.	c #000010103D3D",
"a.	c #717144444343",
"s.	c #C0C05F5F5F5F",
"d.	c #AEAEA8A8A8A8",
"f.	c #AEAEA8A8A7A7",
"g.	c #B1B1ACACABAB",
"h.	c #B8B85C5C5B5B",
"j.	c #989884848585",
"k.	c #B3B3AFAFB0B0",
"l.	c #878744444444",
"z.	c #9A9A8C8C8B8B",
"x.	c #A0A0A0A0A0A0",
"c.	c #BEBEBDBDBDBD",
"v.	c #80805B5B5B5B",
"b.	c #757548484747",
"                                                                ",
"                                                                ",
"                  .     X o O + + @ # X     .                   ",
"              $   % & * = - ; : ; ; > = * , <   1               ",
"                2 * - : 3 4 5 6 6 7 4 3 8 > = 9                 ",
"            0 q - w e r t y u i i i p t r 4 a - s d             ",
"          0 f - g 6 p h j k k l l k k j h t r 3 > + z           ",
"      $   s > g r p x c l v b b n b m m M x y N B > s           ",
"        & - g r i k l V b C Z Z Z Z A n b l k i S D - #         ",
"    F G * H 6 J k l b K Z L P P P P I Z C b m j J r a = U       ",
"      , > e p j l b Z L P Y T T Y Y Y P L Z b l j p e R ,       ",
"      E : 6 h k v C L P Y W Q Q Q Q W Y P L Z b c i r ! *       ",
"    X = ~ t j m n L P Y W ^ / ( ) ) ^ W Y P Z b l j t e - _     ",
"    ` > 4 p k ' C L Y W ^ ) ] [ [ { } | W Y I Z b k p 4 > `     ",
"    ,  .5 i k b Z P Y W ..] X.o.o.O.+./ Q Y @.Z b M i 6 : #.    ",
"    $.; 6 i l n Z P %.Q &.*.=.-.;.o.[ :.Q Y P L b >.i r : @     ",
"    @ : 6 h l b Z P W Q } *.,.-.<.1.[ 2.Q 3.P L b c i 6 : @     ",
"    O  .5 i l b Z @.Y W ..] 4.o.o.O.5.6.W 7.@.Z b M i 6 ; 8.    ",
"    ` - 4 p k 9.K 0.Y W q.) ] w.*.] e.r.r.r.r.r.r.r.r.r.r.r.r.r.",
"    X = D t j m n Z P Y W Q / e.e...^ r.<.<.<.<.<.<.<.<.<.<.<.r.",
"      * : r i >.b K L P Y W Q Q ^ Q W r.<.<.<.X r.<.X r.<.<.<.r.",
"      , > e t j l b C 0.P Y 7.3.%.Y Y r.<.<.<.X t.<.X t.<.<.<.r.",
"      y.* u.6 i k m b Z L L P P P P 0.r.<.<.<.X t.<.X t.<.<.<.r.",
"        ` - g r i j l b n i.Z Z Z Z n r.<.<.<.t.r.<.p.t.<.<.<.r.",
"      1   a.> D t i h >.m m b n n b s.r.<.<.d.d.d.f.g.d.r.<.<.r.",
"          0 + > g 6 p h x k k h.h.l k r.<.<.d.X X X X X r.<.<.r.",
"            j.+ - a 4 r t p i i i i p r.<.<.d.X k.. k.X t.<.<.r.",
"                ` * > l.g 4 6 7 6 6 4 r.<.<.d.X z.k.z.X t.<.<.r.",
"                  % , * = - ; : ; ; - r.<.<.x.X X X X X r.<.<.r.",
"                  c.    X v.#.b.@ , # r.<.<.<.t.t.t.t.t.<.<.<.r.",
"                        F             r.<.<.<.<.<.t.<.<.<.<.<.r.",
"                                      r.r.r.r.r.r.r.r.r.r.r.r.r."};
