/* XPM */
static char *coli[] = {
/* width height num_colors chars_per_pixel */
"    32    32      250            2",
/* colors */
".. c #c0c0c0",
".# c #bfc0bf",
".a c #bfbfbf",
".b c #009500",
".c c #008900",
".d c #009d00",
".e c #bec0be",
".f c #00a000",
".g c #007d00",
".h c #00d500",
".i c #c1c1c1",
".j c #008d00",
".k c #00b000",
".l c #00cb00",
".m c #009100",
".n c #005f00",
".o c #006a00",
".p c #bdbfbd",
".q c #bdc0bd",
".r c #008100",
".s c #00ae00",
".t c #009b00",
".u c #008e00",
".v c #009300",
".w c #bebfbe",
".x c #00b900",
".y c #007800",
".z c #008a00",
".A c #008f00",
".B c #009c00",
".C c #008c00",
".D c #00cf00",
".E c #009e00",
".F c #009f00",
".G c #009200",
".H c #008800",
".I c #00b200",
".J c #007500",
".K c #007a00",
".L c #00c000",
".M c #008300",
".N c #00c600",
".O c #009600",
".P c #c7c5c7",
".Q c #008000",
".R c #d7cdd7",
".S c #099709",
".T c #00ce00",
".U c #007c00",
".V c #005400",
".W c #007b00",
".X c #dbc7db",
".Y c #00bd00",
".Z c #00d300",
".0 c #dfd1df",
".1 c #034203",
".2 c #006600",
".3 c #708670",
".4 c #007300",
".5 c #dbc5db",
".6 c #00c500",
".7 c #008500",
".8 c #9ba69b",
".9 c #00b600",
"#. c #008700",
"## c #decade",
"#a c #005600",
"#b c #9eb99e",
"#c c #004b00",
"#d c #006b00",
"#e c #007400",
"#f c #d2c7d2",
"#g c #c4c1c4",
"#h c #005100",
"#i c #bdbcbd",
"#j c #007f00",
"#k c #018701",
"#l c #00a200",
"#m c #00d000",
"#n c #d5c6d5",
"#o c #c5c3c5",
"#p c #006400",
"#q c #00c400",
"#r c #00c700",
"#s c #00bb00",
"#t c #4d944d",
"#u c #b8b1b8",
"#v c #c0b8c0",
"#w c #009800",
"#x c #bcb5bc",
"#y c #cbc5cb",
"#z c #0e650e",
"#A c #00bf00",
"#B c #005e00",
"#C c #004700",
"#D c #008200",
"#E c #00bc00",
"#F c #e5d7e5",
"#G c #009400",
"#H c #007100",
"#I c #00b300",
"#J c #ccc2cc",
"#K c #c2c1c2",
"#L c #d5c1d5",
"#M c #006900",
"#N c #006000",
"#O c #009a00",
"#P c #00ad00",
"#Q c #007e00",
"#R c #e9c4e9",
"#S c #00e500",
"#T c #00ac00",
"#U c #969d96",
"#V c #003100",
"#W c #00cd00",
"#X c #dfc5df",
"#Y c #d4c5d4",
"#Z c #cfcacf",
"#0 c #008600",
"#1 c #15a815",
"#2 c #005b00",
"#3 c #00d900",
"#4 c #4a744a",
"#5 c #d1c3d1",
"#6 c #378137",
"#7 c #dcd0dc",
"#8 c #71b671",
"#9 c #062806",
"a. c #236923",
"a# c #016f01",
"aa c #d7c2d7",
"ab c #cfc5cf",
"ac c #cdc6cd",
"ad c #bebebe",
"ae c #487a48",
"af c #00d100",
"ag c #e5d3e5",
"ah c #00c300",
"ai c #00c800",
"aj c #e5d2e5",
"ak c #165216",
"al c #d5cad5",
"am c #00a500",
"an c #006e00",
"ao c #d8cfd8",
"ap c #cdc4cd",
"aq c #e3d8e3",
"ar c #aeb2ae",
"as c #cfc6cf",
"at c #d9cad9",
"au c #00d400",
"av c #d7c8d7",
"aw c #e4d9e4",
"ax c #007200",
"ay c #d8c6d8",
"az c #9eb19e",
"aA c #006800",
"aB c #c3c1c3",
"aC c #c8c5c8",
"aD c #8c968c",
"aE c #85a385",
"aF c #c7c3c7",
"aG c #d6c8d6",
"aH c #005500",
"aI c #00aa00",
"aJ c #264f26",
"aK c #c1bfc1",
"aL c #dcccdc",
"aM c #8ead8e",
"aN c #eccdec",
"aO c #2fb52f",
"aP c #a2b2a2",
"aQ c #005000",
"aR c #005d00",
"aS c #4b6a4b",
"aT c #00ca00",
"aU c #0e550e",
"aV c #007700",
"aW c #00a400",
"aX c #b7b9b7",
"aY c #00af00",
"aZ c #003600",
"a0 c #ada4ad",
"a1 c #e2c6e2",
"a2 c #005800",
"a3 c #00d200",
"a4 c #00a600",
"a5 c #194c19",
"a6 c #007900",
"a7 c #d2c6d2",
"a8 c #e2d2e2",
"a9 c #006c00",
"b. c #e2d0e2",
"b# c #c4c3c4",
"ba c #024b02",
"bb c #218a21",
"bc c #00dc00",
"bd c #e3cde3",
"be c #00c200",
"bf c #c8c6c8",
"bg c #99a499",
"bh c #e7dbe7",
"bi c #c8c1c8",
"bj c #006d00",
"bk c #d3c5d3",
"bl c #214d21",
"bm c #e4c9e4",
"bn c #879187",
"bo c #00a900",
"bp c #7ba77b",
"bq c #d9cdd9",
"br c #006500",
"bs c #dad1da",
"bt c #b6b3b6",
"bu c #dad3da",
"bv c #1f9c1f",
"bw c #5d8d5d",
"bx c #acb9ac",
"by c #a4afa4",
"bz c #008b00",
"bA c #00b500",
"bB c #003700",
"bC c #e3c9e3",
"bD c #005900",
"bE c #9fc49f",
"bF c #014801",
"bG c #cdc1cd",
"bH c #00b100",
"bI c #b6b9b6",
"bJ c #b1afb1",
"bK c #ded3de",
"bL c #004400",
"bM c #afb0af",
"bN c #009700",
"bO c #00ba00",
"bP c #b6b8b6",
"bQ c #ccc7cc",
"bR c #d8cad8",
"bS c #00a100",
"bT c #487f48",
"bU c #c5bcc5",
"bV c #00c900",
"bW c #e0d6e0",
"bX c #0f4a0f",
"bY c #aab3aa",
"bZ c #b3c5b3",
"b0 c #d6cad6",
"b1 c #dac7da",
"b2 c #d9c3d9",
"b3 c #077307",
/* pixels */
".......................................#.ebdbxaJaS#F#K.........a",
".a.....................................ebm#bb3#c#CaEag.w.......a",
".....................................qa1#b.c.g.4.J#2bM.R.w......",
"...................................eaa.i#l.O.j.7.A.o#zat#o......",
"..................................bi#X#1am.F.b.b.m.MaR.8bq......",
".................................e#R#8#Pa4.F.B.t.vbz.obTb..#....",
"...............................#aabZ.k.f.d.d.f.B.b.A.KbD#vbQ....",
"..............................aKbCaO.j.C#G.F.f.t.O.m.Q#hbg.R....",
"..............................aybE#e.2#Q.b.f.d#ObN.u.g#abg.R....",
".a............................#Fae#9#N#0.B.t#w#w.v.c.W#h#Uao....",
"...................##K#yasacajbR#9bB.U.G.b#G.b.v.u.7.ybLaDbs....",
".................qa7b1#vbt#vaz#6bL.y.M#0.c.j.A.j.H.Q.obF#u#Z....",
"...............q.XaX#t#k.z#k.J.g.n.V#d.W.r#..H#.#Da6.Va.#7.i....",
".............##nbP.m#l.9.x.9.IaW.ma9bDan#D.r.M.r.U.4aZ.3bW.#....",
".a..........#gb2bv.s#r.l.T#WaT#q#s.s.c#N#e.c.r.g.yaQa5b0.P......",
"............#Yby.E.L.laf.h.h.Z.Dai.Y.k.G#BaV.H.K.n#VbJbuad......",
"............b1aM.d#AbV#mau.h.ha3#W.6.x#T.ca2.K#p#Vbnaq.w........",
"............bkbY.u#I#A.N.l.T.D.D.l.N.Y.k.f#H#C.1bgbh............",
"............aB.Xbb.c#PbA#s.Lbe#qah.LbO.kbS#jbX#xaw.#............",
".............##fbUa.aA#j.m.faIbH.I#I.kbo.d.g#z#Ybf..............",
"...............pal#J.3a.blbFaHbj.C.t.E.d.b.JaUbG.P..............",
".................p#y.0aNbwa##d#2.nbr.z.j.C#a#4.0.i..............",
"....................#naP.E#r.l#E.v#B#M.u.obabU#Z................",
"....................#Xbp#T#3bc#3#maY#M.n#zbJbs.p................",
".a..................ap#i.G.I.Zbc.h.N.OakbGbK.p..................",
".....................eaGby#tbb.z.s.x#O#z#L.P....................",
".......................q##.5bbax#p.Q#HaeaL.i....................",
"........................bkar.s#S.6.2aeavaC......................",
".........................i#5aE.S#E#Qa0a8.p......................",
".........................#aF#R#1#kbw#J#o........................",
".a..........................#obxbI##b#.w.......................a",
".a...........................e#5ab.#.#.........................a"
};
