/* XPM */
static char *coque[] = {
/* width height num_colors chars_per_pixel */
"    32    32      246            2",
/* colors */
".. c #c0c0c0",
".# c #00cb00",
".a c #bfbfbf",
".b c #bfc0bf",
".c c #00c500",
".d c #00c300",
".e c #00b500",
".f c #00d000",
".g c #00bb00",
".h c #00ca00",
".i c #00b300",
".j c #00ab00",
".k c #009500",
".l c #00cd00",
".m c #00a100",
".n c #00d100",
".o c #00bc00",
".p c #008c00",
".q c #00a200",
".r c #00c700",
".s c #00bf00",
".t c #00c900",
".u c #00c200",
".v c #00ad00",
".w c #00ba00",
".x c #00a800",
".y c #00cc00",
".z c #00ce00",
".A c #008b00",
".B c #00c100",
".C c #00ac00",
".D c #00b200",
".E c #00b100",
".F c #00b400",
".G c #00a300",
".H c #00b800",
".I c #00bd00",
".J c #c1c0c1",
".K c #007600",
".L c #00b600",
".M c #00b700",
".N c #008700",
".O c #009400",
".P c #009800",
".Q c #008000",
".R c #00c000",
".S c #00af00",
".T c #009600",
".U c #00cf00",
".V c #00c600",
".W c #009b00",
".X c #00c800",
".Y c #00b900",
".Z c #00c400",
".0 c #005a00",
".1 c #00be00",
".2 c #009a00",
".3 c #00a400",
".4 c #007d00",
".5 c #007100",
".6 c #00aa00",
".7 c #00a700",
".8 c #009700",
".9 c #bdbfbd",
"#. c #009e00",
"## c #00b000",
"#a c #007e00",
"#b c #008200",
"#c c #008600",
"#d c #00ae00",
"#e c #00a900",
"#f c #c4c1c4",
"#g c #00a600",
"#h c #004e00",
"#i c #009100",
"#j c #008d00",
"#k c #007300",
"#l c #c3c1c3",
"#m c #009f00",
"#n c #bec0be",
"#o c #009900",
"#p c #bebebe",
"#q c #c1c1c1",
"#r c #bdc0bd",
"#s c #36ba36",
"#t c #c4c3c4",
"#u c #647a64",
"#v c #002700",
"#w c #d5cbd5",
"#x c #006b00",
"#y c #61c861",
"#z c #008500",
"#A c #006e00",
"#B c #006500",
"#C c #cabfca",
"#D c #008800",
"#E c #cdc5cd",
"#F c #dec1de",
"#G c #004100",
"#H c #003400",
"#I c #007c00",
"#J c #c9c2c9",
"#K c #e3d8e3",
"#L c #dbc0db",
"#M c #005c00",
"#N c #009c00",
"#O c #008e00",
"#P c #ccc1cc",
"#Q c #ddc8dd",
"#R c #b7bbb7",
"#S c #ded1de",
"#T c #007a00",
"#U c #0f3c0f",
"#V c #9fb89f",
"#W c #2db92d",
"#X c #007500",
"#Y c #d2c4d2",
"#Z c #006800",
"#0 c #bdc1bd",
"#1 c #a4bea4",
"#2 c #00a500",
"#3 c #d6c1d6",
"#4 c #c7c3c7",
"#5 c #e6cae6",
"#6 c #008a00",
"#7 c #e1c7e1",
"#8 c #dcd6dc",
"#9 c #009200",
"a. c #00a000",
"a# c #d1cdd1",
"aa c #dbc3db",
"ab c #87a287",
"ac c #c2c1c2",
"ad c #a3a7a3",
"ae c #d3bfd3",
"af c #cdc7cd",
"ag c #e6dfe6",
"ah c #005500",
"ai c #002600",
"aj c #008f00",
"ak c #e3cde3",
"al c #006600",
"am c #c7c0c7",
"an c #000b00",
"ao c #22ca22",
"ap c #e1bde1",
"aq c #00d400",
"ar c #005f00",
"as c #d2c0d2",
"at c #d9c5d9",
"au c #16cf16",
"av c #78c278",
"aw c #005300",
"ax c #72ba72",
"ay c #007700",
"az c #a7b7a7",
"aA c #93b493",
"aB c #004b00",
"aC c #dfd5df",
"aD c #d6d1d6",
"aE c #dccfdc",
"aF c #d8c2d8",
"aG c #005000",
"aH c #1d4c1d",
"aI c #489848",
"aJ c #c8c6c8",
"aK c #3c783c",
"aL c #7d9e7d",
"aM c #3a513a",
"aN c #35cd35",
"aO c #0c820c",
"aP c #57aa57",
"aQ c #005200",
"aR c #003000",
"aS c #e1cae1",
"aT c #001100",
"aU c #8fa18f",
"aV c #c8c7c8",
"aW c #147b14",
"aX c #57b557",
"aY c #003800",
"aZ c #c2c0c2",
"a0 c #cec0ce",
"a1 c #001800",
"a2 c #005e00",
"a3 c #009300",
"a4 c #003d00",
"a5 c #00d200",
"a6 c #99b099",
"a7 c #a9b2a9",
"a8 c #dad1da",
"a9 c #d8ced8",
"b. c #03b103",
"b# c #002400",
"ba c #e1bfe1",
"bb c #517651",
"bc c #e3dce3",
"bd c #ddc0dd",
"be c #007000",
"bf c #003200",
"bg c #dfbddf",
"bh c #2f5a2f",
"bi c #007900",
"bj c #88b388",
"bk c #005700",
"bl c #006300",
"bm c #2eb42e",
"bn c #009d00",
"bo c #00d500",
"bp c #085f08",
"bq c #c7c1c7",
"br c #000700",
"bs c #004900",
"bt c #05c205",
"bu c #d9d1d9",
"bv c #cdcbcd",
"bw c #dfbedf",
"bx c #d5cdd5",
"by c #d4bed4",
"bz c #001e00",
"bA c #15a215",
"bB c #dedade",
"bC c #309a30",
"bD c #515e51",
"bE c #001b00",
"bF c #bdbebd",
"bG c #001900",
"bH c #006900",
"bI c #d8c0d8",
"bJ c #004c00",
"bK c #0d890d",
"bL c #559155",
"bM c #42b442",
"bN c #d9bed9",
"bO c #2e4e2e",
"bP c #a8bca8",
"bQ c #bebfbe",
"bR c #495849",
"bS c #c6c6c6",
"bT c #006200",
"bU c #506e50",
"bV c #cbc1cb",
"bW c #e1cfe1",
"bX c #bcbfbc",
"bY c #55c255",
"bZ c #6bb16b",
/* pixels */
"...............................................................a",
".a.............................................................a",
"................................................................",
"...............................J#f#f#laZ.J......................",
"......................#J#Yaa#Faa#3#3#3aFbd#L#3am.b..............",
"...............b#lat#7#PbPbjaXbMbm#W#W#sbYav#1a0baas...b........",
"..........#n#l#Qaa#VaPbA.3.3.v.v.e.H.M.B.u.s.Vauax#napam#n......",
".........9#Y#Qa6bC.k.P.q.x#d.D.F.o.H.B.Z.R.c.y.#.#.##ybwas#0....",
".......baS#JaI#D#O#m.m.6.6.i.i.w.g.I.c.u.Z.y.#.h.h.nboaNbybN#r..",
".a...bak#VaO.Q.O.P.m.G.j.v.e.e.I.g.d.c.d.h.l.h.#.fa5.faqau.Ja0.b",
"...9aka6.K.4#O.T.2.q#g.C.E.F.Y.I.1.c.d.r.l.#.h.z.n.f.f.naqaobg.J",
"bF#wbX#x#T.N#j.8#N.G.x.v.D.e.g.o.B.c.Z.#.#.h.l.f.f.n.n.U.z.U#Rae",
"#4afaWbl.Q#c.p.T.W.q.x.C.i.e.o.o.d.d.V.#.h.h.z.z.U.n.l.y.l.f#yap",
"bWaLa2.5bi.N#6.k.2.q.x.v.i.L.g.I.d.u.X.t.t.#.y.l.U.#.t.y.y.nau#f",
"#SaK.0#k#k#z.N.O#o.m.7.C.D.L.w.1.B.u.r.r.X.t.#.z.X.c.t.#.f.lbt#R",
"#Rbpah.5#A.Q#z#i.8#m#2.j##.e.H.1.s.d.c.c.V.r.#.V.R.c.t.z.c.M#sbI",
"abahaw#B#xay#b.p.Obn.G#e.S.F.M.o.I.B.d.u.d.r.c.g.R.r.X.w.F.M#yba",
"ad#haQaw#Z#A#a.N#i#oa..7.C.E.e.Y.g.s.s.1.u.d.L.w.Z.s#d.S.H.gaA#L",
"#4aH#GaB.0al.K.Q.p.k#N.3#e#d.i.L.Y.o.w.g.R.i.i.s.e.3.C.Y.Lb.bqbV",
"a8bh#v#Gbs#M#x#T#caj.Pa.#g.j.S.D.e.M.F.w.D.j.H#e.W.6.E.7#oazaF#r",
"buaUb#aRaYaBarbe.4#D#9.2.m#g.j.v.E##.E##.G.S#..k.q#m.Tajbj#5#n.b",
"..agbbaTaibfaBbT#k.Q.A.O.W.m#2.x.j.x.j#..G.k.p#9.A.N.AbZ#5.J.b..",
".aaJaCbhbrbEaR#hal#X#b.Aa3.2#..m.m.q.W.T.p.4.4.K.KbKbj#7#f.b....",
"..bQaf#8#ua1an#v#h#Z.K#b#6#i.k.P.8.k#j.Q#B.0.0#AbL#PaSac.b......",
".a..#paJaga7aMbGana4bH#X#a#c.A#j.p#Ibk#HaYbpbLazak#E.9..........",
".......b.aaDbB#R#u#Uai#M.5ay#a#IarbJbObUabaVbW#w...b............",
"...........aaca#ag#wbDbz#HaGaG#Gbb#Ca9aCaE#E.b..................",
"................#pbvbcadbRaHbOaU#Ka##t..........................",
"...................a..aD#8#Ybxa8#q.a............................",
"........................#qbS#t..................................",
".a.............................................................a",
".a.............................................................a"
};
