/* XPM */
static char *big[] = {
/* width height num_colors chars_per_pixel */
"    32    32      248            2",
/* colors */
".. c #c0c0c0",
".# c #00ff00",
".a c #00f200",
".b c #00ea00",
".c c #00f800",
".d c #bfc0bf",
".e c #00fe00",
".f c #00f500",
".g c #bfbfbf",
".h c #00e800",
".i c #00fd00",
".j c #00d500",
".k c #00d900",
".l c #00f400",
".m c #00e700",
".n c #00e300",
".o c #bec0be",
".p c #00fa00",
".q c #00cb00",
".r c #00f900",
".s c #00e100",
".t c #bfc1bf",
".u c #00f600",
".v c #00d400",
".w c #00e500",
".x c #00e200",
".y c #00d000",
".z c #bec1be",
".A c #00c500",
".B c #00ef00",
".C c #005a00",
".D c #00ee00",
".E c #00eb00",
".F c #00c300",
".G c #00ed00",
".H c #00a300",
".I c #c1c1c1",
".J c #00ac00",
".K c #005d00",
".L c #00d600",
".M c #bdc1bd",
".N c #00a900",
".O c #00d700",
".P c #00b700",
".Q c #00cf00",
".R c #00a800",
".S c #00df00",
".T c #00b900",
".U c #00bb00",
".V c #005800",
".W c #00a200",
".X c #00ec00",
".Y c #00b500",
".Z c #00de00",
".0 c #00ca00",
".1 c #00b800",
".2 c #006400",
".3 c #00e600",
".4 c #007200",
".5 c #00b000",
".6 c #00f000",
".7 c #00d300",
".8 c #00e400",
".9 c #005f00",
"#. c #00b100",
"## c #00e000",
"#a c #00cd00",
"#b c #009300",
"#c c #009700",
"#d c #00f300",
"#e c #00ba00",
"#f c #00a000",
"#g c #005900",
"#h c #00cc00",
"#i c #008900",
"#j c #005700",
"#k c #00fc00",
"#l c #bebfbe",
"#m c #00db00",
"#n c #008800",
"#o c #00dd00",
"#p c #00be00",
"#q c #cebece",
"#r c #009d00",
"#s c #c3bac3",
"#t c #ccc6cc",
"#u c #006e00",
"#v c #7dab7d",
"#w c #006a00",
"#x c #00c000",
"#y c #cec2ce",
"#z c #004c00",
"#A c #81cc81",
"#B c #b7bab7",
"#C c #d5bfd5",
"#D c #1d671d",
"#E c #22b622",
"#F c #9bd59b",
"#G c #d8cbd8",
"#H c #25ce25",
"#I c #c5c0c5",
"#J c #dbbddb",
"#K c #70b770",
"#L c #00c600",
"#M c #5b8b5b",
"#N c #004600",
"#O c #006600",
"#P c #4e804e",
"#Q c #e0cde0",
"#R c #008c00",
"#S c #c7c1c7",
"#T c #ddc9dd",
"#U c #00a500",
"#V c #00bd00",
"#W c #ecccec",
"#X c #00af00",
"#Y c #c6c3c6",
"#Z c #00ce00",
"#0 c #8dc58d",
"#1 c #33c233",
"#2 c #95b195",
"#3 c #b9bdb9",
"#4 c #009a00",
"#5 c #daccda",
"#6 c #e8b3e8",
"#7 c #004f00",
"#8 c #c3c0c3",
"#9 c #007500",
"a. c #dab7da",
"a# c #c6bfc6",
"aa c #d1cdd1",
"ab c #cbbacb",
"ac c #a3aea3",
"ad c #00a100",
"ae c #29d829",
"af c #3ad93a",
"ag c #00bf00",
"ah c #3ccd3c",
"ai c #e2bce2",
"aj c #d2c9d2",
"ak c #e5bbe5",
"al c #bdbebd",
"am c #00ad00",
"an c #e4b8e4",
"ao c #00d100",
"ap c #c8c4c8",
"aq c #67d467",
"ar c #e4cee4",
"as c #aab4aa",
"at c #ddbcdd",
"au c #00b200",
"av c #00dc00",
"aw c #cdc7cd",
"ax c #dec7de",
"ay c #7add7a",
"az c #003c00",
"aA c #00c200",
"aB c #00fb00",
"aC c #83aa83",
"aD c #4dd04d",
"aE c #007800",
"aF c #ccbfcc",
"aG c #9faf9f",
"aH c #00e900",
"aI c #a3c3a3",
"aJ c #97a397",
"aK c #ddd0dd",
"aL c #006500",
"aM c #c4c0c4",
"aN c #006f00",
"aO c #009600",
"aP c #008100",
"aQ c #d7cfd7",
"aR c #ebb4eb",
"aS c #006000",
"aT c #d5bad5",
"aU c #d9bed9",
"aV c #048404",
"aW c #005500",
"aX c #008600",
"aY c #009800",
"aZ c #009400",
"a0 c #cfc8cf",
"a1 c #dfb7df",
"a2 c #c1bfc1",
"a3 c #008b00",
"a4 c #74c774",
"a5 c #bdc0bd",
"a6 c #08c108",
"a7 c #d4cbd4",
"a8 c #007b00",
"a9 c #73a173",
"b. c #188318",
"b# c #77c677",
"ba c #d2c0d2",
"bb c #dfb9df",
"bc c #008d00",
"bd c #337a33",
"be c #005600",
"bf c #006900",
"bg c #95c495",
"bh c #009e00",
"bi c #008700",
"bj c #dfc2df",
"bk c #d9c5d9",
"bl c #c4c1c4",
"bm c #009200",
"bn c #00ab00",
"bo c #75c375",
"bp c #458d45",
"bq c #3fd63f",
"br c #c6c4c6",
"bs c #e2c0e2",
"bt c #c4bdc4",
"bu c #00da00",
"bv c #c9bfc9",
"bw c #006300",
"bx c #00f100",
"by c #005300",
"bz c #00c900",
"bA c #05c105",
"bB c #1dea1d",
"bC c #008300",
"bD c #d6c4d6",
"bE c #c3c1c3",
"bF c #00d800",
"bG c #246d24",
"bH c #d6c3d6",
"bI c #009100",
"bJ c #d4c6d4",
"bK c #006800",
"bL c #005200",
"bM c #009f00",
"bN c #04f204",
"bO c #36d236",
"bP c #045d04",
"bQ c #c9c0c9",
"bR c #009000",
"bS c #e0bce0",
"bT c #007100",
"bU c #8e9d8e",
"bV c #c2c0c2",
"bW c #009500",
"bX c #1ab11a",
"bY c #b0bfb0",
"bZ c #e2b8e2",
"b0 c #c0c1c0",
"b1 c #e0b9e0",
/* pixels */
"...............................................................g",
".g.............dbl#ybDbkbkbkbJap.I.............................g",
"...........o#ybj#C#B#2#v#vaCaG#s#T#G.I.d........................",
".......o#Sbs#s#K#E#..5#X.RbM#baVbpacar#tal......................",
".....Mbaat#KbA#h.7.O.j.7#a.A.U.Jbm#9#P#Taw#l....................",
"...M#Cab#1.k.m.b.b.h.w###m.7.q#x.Y.WbTbd#Tbr....................",
".o#qaT#H.X.l.u.u.f.a.B.b.8#o.j.qag#.#f#O#Mar.d..................",
"#8b1bO.f.i.#.#.e#k.c.l.D.h.s.k.y.A.1.N#iaLbt#t..................",
"at#0.f.#.#.#.#.#.e.r.l.B.h.s.k.y#L#ebn#c.2aJ#5.d................",
"a.ae.#.#.#.#.#.#.i.c.a.X.w.Z.j#aaA.P.NaYaLbU#W#J#I.z............",
"bY.a.#.#.#.#.#.#.r#d.G.3.Z.L#Z.A.U.5.H#R.9a6bqbgaU#J...t........",
"#0#k.#.#.#.#.#.r#d.X.8#o.v#h.F.T#X#UaO.Kbcbx.SavaeaIakbv.z......",
"#A.e.#.#.#.e.r.a.E.nbuao#L.Tam.R#caEaSa3.u.a.m.w.n.SaqbS#q.M....",
"bgaB.#.#.e.c.a.b.x.k.0.T.5.J.NaP#wad.y.#.#.a.a.DaH.8.xbOataF.o..",
"#3bN.#.i.c.a.E.n.O.A.F.Q.j.q#b#u.v.#.#.#.e.i.r.f.6.b.n.sahakaM.d",
"a1af.#.c#d.G.m.k#Z.n.p.l.jaZaO.6.#.#.#.#.#.#.#aB.f.B.h###ma4ai.o",
"aUaI.l.u.6.E.s.k.c.#.p.O#4#x.#.#.#.#.#.#.#.#.#.e.c.a.E.x.k.y#IaF",
".danaD.f.D.h.s.r.#.#.m.N.q.#.p.i.#.#.#.#.#.#.#.e.c.a.b.xbF.QbobS",
".oa#bZbO.B.h.b.#.#.i#p.Y.m.w.D.f#k.#.#.#.#.#.e.p.l.D.3.Z.vbz#1aU",
"..a5#qbbaD.h.b.i.#.G.W.1.0.L##.h.B.l.c.p.p.c.f.a.G.3.S.O#aaA#EaF",
".....MaFanb#av.a.#.xbCbh#.ag.q.j#o.n.maH.b.b.h.w.s#m.v#h.F.PbXbQ",
".......zaMak#3ah.#.u.2aNbIad#X#e.F.0.y.v.L.L.j.7.Q.q.A#p.Y.R#EbH",
"...........z#CaR#A.#bWaz#O#9#n#c.H.Jau.1.U#V#p#V#e.Pau.J#U#b#Kax",
".............t#IaRay.#aSaz.C.9#waEaXbRaY#r#f.W.H.H#f#r#4#Rbia2#y",
".g.............t#8#6ay.f.K#N.C.V#g.9bK.4a8aPaX#n#i#i#naP#uaC#Q#l",
".................tbV#6#FbBaN#N#g.K.C#g.C.Kbwbf#u.4.4.2aSa9ar.I.d",
"..................b0.ta.aQayb.#7#zbL#j.V.V#jaWby#7#7bGaGarbE.g..",
".......................zbvbjaa#2#PbGbP#jaWbe.C#D#PaJ#G#5.d.d....",
"...........................d#S#5aKaj#lasacas#BawaK#5#Y#l........",
"..................................#Yawaja7a7a0ap.I..............",
".g.............................................................g",
".g.............................................................g"
};
