/* XPM */
static char * image_name[] = {
"32 32 186 2",
"  	c #DEDEDEDECCCC",
". 	c #DBDBDBDBCACA",
"X 	c #D9D9D9D9C8C8",
"o 	c #CFCFCFCFBFBF",
"O 	c #808080807777",
"+ 	c #777777776F6F",
"@ 	c #B0B0B0B0A2A2",
"# 	c #D4D4D4D4C4C4",
"$ 	c #D7D7D7D7C6C6",
"% 	c #D7D7D7D7C7C7",
"& 	c #989898988B8B",
"* 	c #000000000000",
"= 	c #020202020202",
"- 	c #B8B8B8B8ABAB",
"; 	c #DADADADACACA",
": 	c #D2D2D2D2C2C2",
"> 	c #D6D6D6D6C6C6",
", 	c #D8D8D8D8C7C7",
"< 	c #D2D2D2D2C0C0",
"1 	c #C1C1C1C1B1B1",
"2 	c #CECECECEBEBE",
"3 	c #D3D3D3D3C3C3",
"4 	c #6A6A6A6A6060",
"5 	c #838383837A7A",
"6 	c #DEDEDEDECECE",
"7 	c #DDDDDDDDCCCC",
"8 	c #DFDFDFDFCFCF",
"9 	c #D5D5D5D5C5C5",
"0 	c #D8D8D8D8C8C8",
"q 	c #E1E1E1E1D1D1",
"w 	c #010101010101",
"e 	c #050505050606",
"r 	c #CCCCCCCCBCBC",
"t 	c #B5B5B5B5A7A7",
"y 	c #5E5E5E5E5656",
"u 	c #575757575151",
"i 	c #636363635A5A",
"p 	c #8B8B8B8B8080",
"a 	c #DCDCDCDCCCCC",
"s 	c #BFBFBFBFB0B0",
"d 	c #737373736A6A",
"f 	c #727272726B6B",
"g 	c #A5A5A5A59B9B",
"h 	c #CACACACABBBB",
"j 	c #A4A4A4A49797",
"k 	c #929292928787",
"l 	c #C1C1C1C1B3B3",
"z 	c #1A1A1A1A1818",
"x 	c #ACACACACA0A0",
"c 	c #5D5D5D5D5757",
"v 	c #D1D1D1D1C1C1",
"b 	c #CCCCCCCCBEBE",
"n 	c #636363635D5D",
"m 	c #C6C6C6C6B6B6",
"M 	c #B3B3B3B3A5A5",
"N 	c #1E1E1E1E1C1C",
"B 	c #575757575353",
"V 	c #767676766D6D",
"C 	c #656565656161",
"Z 	c #9C9C9C9C9191",
"A 	c #AEAEAEAEA2A2",
"S 	c #707070706767",
"D 	c #9E9E9E9E9393",
"F 	c #6F6F6F6F6666",
"G 	c #ABABABAB9E9E",
"H 	c #E4E4E4E4D2D2",
"J 	c #E0E0E0E0CFCF",
"K 	c #C7C7C7C7B9B9",
"L 	c #CBCBCBCBBCBC",
"P 	c #4E4E4E4E4949",
"I 	c #515151514949",
"U 	c #C3C3C3C3B4B4",
"Y 	c #B4B4B4B4A8A8",
"T 	c #8D8D8D8D8282",
"R 	c #555555554F4F",
"E 	c #858585857A7A",
"W 	c #DADADADAC9C9",
"Q 	c #B8B8B8B8A8A8",
"! 	c #D9D9D9D9C9C9",
"~ 	c #B0B0B0B0A3A3",
"^ 	c #848484847B7B",
"/ 	c #939393938787",
"( 	c #C6C6C6C6B7B7",
") 	c #050505050303",
"_ 	c #242424242121",
"` 	c #DCDCDCDCCBCB",
"' 	c #373737373535",
"] 	c #D5D5D5D5C7C7",
"[ 	c #D0D0D0D0C0C0",
"{ 	c #969696968B8B",
"} 	c #424242423F3F",
"| 	c #878787877E7E",
" .	c #A9A9A9A99E9E",
"..	c #0B0B0B0B0C0C",
"X.	c #7F7F7F7F7676",
"o.	c #B8B8B8B8AAAA",
"O.	c #4E4E4E4E4A4A",
"+.	c #B1B1B1B1A4A4",
"@.	c #A4A4A4A49999",
"#.	c #3D3D3D3D3D3D",
"$.	c #DBDBDBDBCBCB",
"%.	c #C0C0C0C0B2B2",
"&.	c #8C8C8C8C8989",
"*.	c #707070706C6C",
"=.	c #606060605C5C",
"-.	c #595959595A5A",
";.	c #4D4D4D4D4E4E",
":.	c #444444444545",
">.	c #848484847C7C",
",.	c #E6E6E6E6D2D2",
"<.	c #D4D4D4D4C0C0",
"1.	c #DBDBDBDBC7C7",
"2.	c #D2D2D2D2BFBF",
"3.	c #D7D7D7D7C5C5",
"4.	c #343434343030",
"5.	c #AEAEAEAEA1A1",
"6.	c #3B3B3B3B3B3B",
"7.	c #323232323333",
"8.	c #3B3B3B3B3D3D",
"9.	c #3F3F3F3F3F3F",
"0.	c #434343434444",
"q.	c #424242424343",
"w.	c #393939393A3A",
"e.	c #676767676969",
"r.	c #D0D0D0D0D6D6",
"t.	c #C5C5C5C5C9C9",
"y.	c #C9C9C9C9CFCF",
"u.	c #C3C3C3C3C9C9",
"i.	c #2D2D2D2D2A2A",
"p.	c #292929292B2B",
"a.	c #404040404040",
"s.	c #3C3C3C3C3C3C",
"d.	c #3A3A3A3A3A3A",
"f.	c #858585858181",
"g.	c #737373737575",
"h.	c #7A7A7A7A7C7C",
"j.	c #6F6F6F6F7272",
"k.	c #818181817C7C",
"l.	c #343434343131",
"z.	c #353535353333",
"x.	c #232323232424",
"c.	c #414141414141",
"v.	c #555555555656",
"b.	c #343434343535",
"n.	c #E3E3E3E3CFCF",
"m.	c #D5D5D5D5C3C3",
"M.	c #DADADADAC8C8",
"N.	c #DCDCDCDCCACA",
"B.	c #040404040303",
"V.	c #777777776D6D",
"C.	c #8B8B8B8B7F7F",
"Z.	c #535353534D4D",
"A.	c #181818181616",
"S.	c #363636363535",
"D.	c #686868686C6C",
"F.	c #656565656767",
"G.	c #2C2C2C2C2D2D",
"H.	c #303030303030",
"J.	c #313131313131",
"K.	c #505050505353",
"L.	c #6C6C6C6C6E6E",
"P.	c #2F2F2F2F3030",
"I.	c #DBDBDBDBCCCC",
"U.	c #D1D1D1D1C2C2",
"Y.	c #131313131515",
"T.	c #383838383838",
"R.	c #393939393838",
"E.	c #BBBBBBBBC5C5",
"W.	c #ABABABABB7B7",
"Q.	c #B5B5B5B5BEBE",
"!.	c #ACACACACB8B8",
"~.	c #B1B1B1B1B5B5",
"^.	c #C4C4C4C4B3B3",
"/.	c #212121211F1F",
"(.	c #B8B8B8B8A9A9",
").	c #2E2E2E2E2C2C",
"_.	c #161616161818",
"`.	c #1D1D1D1D1F1F",
"'.	c #252525252626",
"].	c #959595958E8E",
"[.	c #AFAFAFAFA2A2",
"{.	c #919191918787",
"}.	c #A4A4A4A49898",
"|.	c #7B7B7B7B7373",
" X	c #444444444040",
".X	c #DDDDDDDDCBCB",
"  . X o O + @ # # . $ % # # # # # # # # # # # # # # # # # # # X ",
". # # & * = - # # ; : # # # # # # # # # # # # # # # # # # # # > ",
", # < * * 1 # # # > 2 # # # # # # # # # # # # # # # # # # # # 3 ",
". # 4 * 5 # # # : ; : # # # # # # # 6 7 7 8 # # # # # # # # # 9 ",
"0 q w e # # # # r # r # # # # t + y u u u u i p 3 # # # # # # : ",
"a 2 * i # # # # # a # # # s d f g o 7 6 6   h & # # # # # # # > ",
"0 j * k # # # # r # # # l z s s # # # # # # # # # # # # # # # : ",
"a x * & # a # # # # # # c v # # # # # # # # # # # # # # # # # # ",
"# b * n # # # # # # # m c # # # # % s s s M # # # # # # # # # # ",
"# # N N # # # # # # # # B # # M V i C 4 4 C C Z # # # # # # # # ",
"# # d * A # # # # # # # S D + F G # # H H J K + C # # # # # # # ",
". # L * P # # # # # # # # = i # # # # # # # # # P # # # # # # # ",
", # # I * U # # # # # # f M Z u F Z s U U Y T R E # # # # # # # ",
"W # # Q * S # # : # # ! c # # # ~ ^ 4 C C f / ( # # ; # # # # # ",
", # # # ) _ # # 2 # # ` c # # # # # # # # # # # # # # # # # # # ",
"X # # # ' * ] # [ # # # + { # # # 3 3 3 # # # ! . > # # # # # # ",
"X # # # } * h # [ # # # # R | # # # # # # # # h  .` # # # # # # ",
", # # # ..* 8 # 2 # # # # a ^ u X. .U K h o.T O.j # # # # [ # # ",
"W # # +.* R # # : ; # # # # # > @.V i i i S k o # # ; # # # # # ",
", # # #.* l # # 2 > # # # # # : : [ 9 : . 3 $.[ # # # # # # # # ",
". # s * #.# # # # # # # # # # # # # # # # # # # # # # # # > # # ",
"% # d * D # # # # # # # # # # # %.&.*.=.-.;.:.>.,.<.1.2.3.o # # ",
"` # 4.* # # # # # # # # # # # 5.6.7.8.9.0.q.w.e.r.t.y.u.y.9 # # ",
", # ..i.# > # # # # #  .D h # -.p.9.a.6.s.#.d.;.f.g.h.j.k.h # # ",
"` # ..l.# 6 # # # # P * * * z.x.w.c.#.v.f.;.b.4 n.m.M.# # N.# # ",
"% # 4.B.# # # # # V.* n C.Z.A.e 7.6.S.D.# F.G.C # # # # # o # # ",
"$.# + * j # # # # * P # # # 6 H.J.6.d.K.L.d.P.n # # I.# # $ # # ",
"# # v ..* k %.j B.* U.# # # # O.Y.7.T.R.d.S.H.-.E.W.Q.!.~.K # # ",
"# # # ^./.* * * * t # # # 0 # (.)._._.`.'.p.x.} ].f.&.k.k.0 # # ",
", # # # 7 [.{.@.# # # # # # # # [ }.|.n B  Xz.+ # # # M..X3 # # ",
"W 0 # # # # # # # # : ; # # # # # # # # # # # , # : # # 0 # # # ",
"X > 3 9 : > : > : > : > 3 9 3 # # # # # # # # # # # # # # # # # "};
