/* XPM */
static char * image_name[] = {
"32 32 157 2",
"  	c #C2C2C2C2C2C2",
". 	c #AFAFAFAFC7C7",
"X 	c #69696666DBDB",
"o 	c #43433E3EE6E6",
"O 	c #5B5B5858DFDF",
"+ 	c #A4A4A3A3CACA",
"@ 	c #5D5D5A5ADEDE",
"# 	c #35353030EAEA",
"$ 	c #6E6E6B6BDADA",
"% 	c #B2B2B1B1C7C7",
"& 	c #79797777D7D7",
"* 	c #38383333E9E9",
"= 	c #7E7E7C7CD5D5",
"- 	c #BFBFBFBFC3C3",
"; 	c #99999898CECE",
": 	c #50504C4CE2E2",
"> 	c #30302B2BEBEB",
", 	c #ACACACACC8C8",
"< 	c #53534F4FE1E1",
"1 	c #48484444E4E4",
"2 	c #8C8C8A8AD1D1",
"3 	c #47473F3FDEDE",
"4 	c #989875758B8B",
"5 	c #E5E5C0C02D2D",
"6 	c #ACAC8D8D6868",
"7 	c #39393232E3E3",
"8 	c #7B7B7979D6D6",
"9 	c #2D2D2828ECEC",
"0 	c #BABABABAC4C4",
"q 	c #81817F7FD4D4",
"w 	c #40403B3BE5E5",
"e 	c #52524444CFCF",
"r 	c #AAAA8A8A6E6E",
"t 	c #ECECD8D82828",
"y 	c #EBEBD2D22828",
"u 	c #EBEBCBCB2727",
"i 	c #EAEAC3C32828",
"p 	c #D1D1A8A84040",
"a 	c #54544242C8C8",
"s 	c #56565252DFDF",
"d 	c #B5B5B4B4C6C6",
"f 	c #83838181D4D4",
"g 	c #3A3A3636E8E8",
"h 	c #8F8F8D8DD0D0",
"j 	c #B7B7B7B7C5C5",
"k 	c #74747171D8D8",
"l 	c #46464141E3E3",
"z 	c #BBBB99995B5B",
"x 	c #ECECDDDD2828",
"c 	c #ECECDADA2828",
"v 	c #EBEBD4D42828",
"b 	c #EAEACDCD2828",
"n 	c #EAEAC5C52828",
"m 	c #EAEABDBD2727",
"M 	c #E9E9B4B42727",
"N 	c #E4E4A7A72C2C",
"B 	c #84845D5D9292",
"V 	c #3B3B3535E5E5",
"C 	c #9F9F9E9ECCCC",
"Z 	c #58585555E0E0",
"A 	c #66666363DCDC",
"S 	c #40403B3BE7E7",
"D 	c #64645E5ED9D9",
"F 	c #DADAA8A84343",
"G 	c #ECECD5D52828",
"H 	c #EBEBCFCF2828",
"J 	c #EBEBC7C72828",
"K 	c #EAEABFBF2727",
"L 	c #E9E9B6B62727",
"P 	c #E8E8ADAD2727",
"I 	c #E7E7A3A32727",
"U 	c #9C9C6B6B7575",
"Y 	c #3E3E3131DADA",
"T 	c #3A3A3131E3E3",
"R 	c #60605D5DDEDE",
"E 	c #BDBDBDBDC3C3",
"W 	c #71716E6ED9D9",
"Q 	c #A4A47F7F8B8B",
"! 	c #EAEAC5C52727",
"~ 	c #EAEAC2C22727",
"^ 	c #E9E9B9B92828",
"/ 	c #E8E8B0B02828",
"( 	c #D0D096964040",
") 	c #60604848B6B6",
"_ 	c #56563F3FC1C1",
"` 	c #CACA78784343",
"' 	c #D3D373733838",
"] 	c #5E5E4242BDBD",
"[ 	c #4E4E4949E0E0",
"{ 	c #A1A1A0A0CBCB",
"} 	c #94949292CFCF",
"| 	c #46464141E5E5",
" .	c #61615454CECE",
"..	c #D7D7A3A33B3B",
"X.	c #E9E9B2B22727",
"o.	c #A0A077777272",
"O.	c #3E3E3333DADA",
"+.	c #8E8E61618484",
"@.	c #E5E588882727",
"#.	c #E4E47E7E2727",
"$.	c #E3E373732626",
"%.	c #E3E369692626",
"&.	c #8C8C4C4C8686",
"*.	c #39393232E6E6",
"=.	c #92929090D0D0",
"-.	c #A9A9A9A9C9C9",
";.	c #76767373D7D7",
":.	c #3B3B3535E7E7",
">.	c #5B5B4646BEBE",
",.	c #56564343C1C1",
"<.	c #C8C884844747",
"1.	c #E5E58C8C2626",
"2.	c #E5E581812727",
"3.	c #E3E376762626",
"4.	c #E3E36C6C2727",
"5.	c #E2E261612626",
"6.	c #E1E157572626",
"7.	c #B9B948485151",
"8.	c #42423535DADA",
"9.	c #86868484D3D3",
"0.	c #5F5F4A4AC2C2",
"q.	c #D1D184843D3D",
"w.	c #E5E584842626",
"e.	c #E3E37A7A2727",
"r.	c #E3E36E6E2626",
"t.	c #E2E264642626",
"y.	c #E1E159592626",
"u.	c #E1E150502626",
"i.	c #DFDF47472626",
"p.	c #D2D23C3C3434",
"a.	c #50503535C8C8",
"s.	c #32322D2DEAEA",
"d.	c #4B4B4747E4E4",
"f.	c #A7A7A6A6CACA",
"g.	c #3C3C3434E3E3",
"h.	c #9A9A5C5C7777",
"j.	c #E4E471712727",
"k.	c #E2E267672626",
"l.	c #E1E15D5D2626",
"z.	c #E1E153532525",
"x.	c #E0E049492626",
"c.	c #DFDF40402525",
"v.	c #9E9E36366E6E",
"b.	c #39393131E3E3",
"n.	c #51514B4BDEDE",
"m.	c #5A5A4040C0C0",
"M.	c #000000000000",
"N.	c #3D3D3939E7E7",
"B.	c #FFFFFFFFFFFF",
"V.	c #97979595CECE",
"C.	c #737370707070",
"Z.	c #202020202020",
"A.	c #56565252E0E0",
"S.	c #ABABA8A8A8A8",
"D.	c #B3B3B0B0B0B0",
"F.	c #BCBCB9B9B9B9",
"G.	c #939390909090",
"                                                                ",
"                                                                ",
"                                                                ",
"                                                                ",
"                                                                ",
"                                                                ",
"                                . X o O .                       ",
"                            + @ # $ % & * = -                   ",
"                        ; : * > ;       , < 1 +                 ",
"                  - 2 1 3 4 5 6 7 8         8 9 X 0             ",
"              0 q w e r t y u i p a s d   f * q X g h           ",
"          j k * l z x c v b n m M N B V : : .     C 1 Z ,       ",
"      . X # A h S D F G H J K L P I U Y T k -       - = * & -   ",
"  + R # $ d     E W g Q ! ~ ^ / ( ) _ ` ' ] [ .         { > ,   ",
"} > 8 0             { |  ...X.o.O.+.@.#.$.%.&.*.=.    , S k     ",
"-.1 Z %               E ;.:.>.,.<.1.2.3.4.5.6.7.8.X C g 9.      ",
"  - = g q               2 * o 0.q.w.e.r.t.y.u.i.p.a.s.=.        ",
"      , < d.f.      d O d.-.- 8 g.h.j.k.l.z.x.c.v.b.C           ",
"          2 g ;.E h * & -       -.n.m.M.M.M.M.M.M.M.M.M.M.M.M.M.",
"            d R * N.f.              q M.B.B.B.B.B.B.B.B.B.B.B.M.",
"                V.S A 0               M.B.B.B.C.M.B.C.M.B.B.B.M.",
"                  E W g h             M.B.B.B.C.M.B.C.M.B.B.B.M.",
"                      + 1 Z .       d M.B.B.B.C.M.B.C.M.B.B.B.M.",
"                        - = g q   , S M.B.B.B.M.M.B.Z.M.B.B.B.M.",
"                            , < A.g 9.M.B.B.S.S.S.S.S.S.M.B.B.M.",
"                                j {   M.B.B.S.C.C.C.C.C.M.B.B.M.",
"                                      M.B.B.S.C.D.F.D.C.M.B.B.M.",
"                                      M.B.B.S.C.G.D.G.C.M.B.B.M.",
"                                      M.B.B.S.C.C.C.C.C.M.B.B.M.",
"                                      M.B.B.B.M.M.M.M.M.B.B.B.M.",
"                                      M.B.B.B.B.B.M.B.B.B.B.B.M.",
"                                      M.M.M.M.M.M.M.M.M.M.M.M.M."};
