/* XPM */
static char *zarb[] = {
/* width height num_colors chars_per_pixel */
"    32    32      239            2",
/* colors */
".. c #c0c0c0",
".# c #bfbfbf",
".a c #00c000",
".b c #00b300",
".c c #009c00",
".d c #bfc0bf",
".e c #00c700",
".f c #00c400",
".g c #009800",
".h c #00b100",
".i c #00a800",
".j c #009600",
".k c #009f00",
".l c #bec0be",
".m c #00bc00",
".n c #00af00",
".o c #00a600",
".p c #00c300",
".q c #007b00",
".r c #00cc00",
".s c #008d00",
".t c #00d100",
".u c #009e00",
".v c #00a200",
".w c #009200",
".x c #00c100",
".y c #007a00",
".z c #00cf00",
".A c #00c600",
".B c #009b00",
".C c #007700",
".D c #00bd00",
".E c #009a00",
".F c #009400",
".G c #00cd00",
".H c #00b200",
".I c #00cb00",
".J c #00c200",
".K c #007e00",
".L c #009500",
".M c #008900",
".N c #008500",
".O c #00a300",
".P c #00a100",
".Q c #00a500",
".R c #008400",
".S c #00d700",
".T c #00ad00",
".U c #007600",
".V c #00ac00",
".W c #00be00",
".X c #bebfbe",
".Y c #00aa00",
".Z c #00b400",
".0 c #00ce00",
".1 c #00c800",
".2 c #00b500",
".3 c #008200",
".4 c #00a700",
".5 c #00da00",
".6 c #00d200",
".7 c #bdbfbd",
".8 c #00bb00",
".9 c #00d500",
"#. c #009900",
"## c #008800",
"#a c #00ba00",
"#b c #009100",
"#c c #00a400",
"#d c #009700",
"#e c #c1c1c1",
"#f c #009d00",
"#g c #00d800",
"#h c #003c00",
"#i c #d1c1d1",
"#j c #bcc1bc",
"#k c #00c500",
"#l c #1cc31c",
"#m c #d8c0d8",
"#n c #00d900",
"#o c #c2c1c2",
"#p c #d4ccd4",
"#q c #cac7ca",
"#r c #026802",
"#s c #dac8da",
"#t c #3dcb3d",
"#u c #c7c0c7",
"#v c #00df00",
"#w c #00a000",
"#x c #c5c1c5",
"#y c #8cc28c",
"#z c #dabada",
"#A c #005800",
"#B c #c7b1c7",
"#C c #008f00",
"#D c #59c659",
"#E c #bfc1bf",
"#F c #008600",
"#G c #00ae00",
"#H c #00db00",
"#I c #cbc5cb",
"#J c #c2c0c2",
"#K c #026f02",
"#L c #006b00",
"#M c #d4c5d4",
"#N c #00b000",
"#O c #005600",
"#P c #007d00",
"#Q c #d1b8d1",
"#R c #2ccb2c",
"#S c #006e00",
"#T c #007100",
"#U c #00a900",
"#V c #ddc7dd",
"#W c #007400",
"#X c #008e00",
"#Y c #00b700",
"#Z c #009000",
"#0 c #006200",
"#1 c #00d400",
"#2 c #00c900",
"#3 c #00d000",
"#4 c #008700",
"#5 c #0dcc0d",
"#6 c #00d300",
"#7 c #17a017",
"#8 c #8abc8a",
"#9 c #115e11",
"a. c #d3cbd3",
"a# c #5d895d",
"aa c #d5c2d5",
"ab c #3da83d",
"ac c #00bf00",
"ad c #597959",
"ae c #00b800",
"af c #4d874d",
"ag c #5aa25a",
"ah c #97a397",
"ai c #4ea34e",
"aj c #c5c2c5",
"ak c #006400",
"al c #00e200",
"am c #d8c2d8",
"an c #006000",
"ao c #001f00",
"ap c #e2c4e2",
"aq c #ddc0dd",
"ar c #007800",
"as c #7fa57f",
"at c #4b7f4b",
"au c #dbc8db",
"av c #ccc5cc",
"aw c #afacaf",
"ax c #acbaac",
"ay c #379737",
"az c #c4bcc4",
"aA c #cbbccb",
"aB c #c5bac5",
"aC c #00e900",
"aD c #008a00",
"aE c #005200",
"aF c #009300",
"aG c #006d00",
"aH c #006f00",
"aI c #d8cbd8",
"aJ c #208720",
"aK c #004900",
"aL c #053705",
"aM c #f5def5",
"aN c #007900",
"aO c #aaa8aa",
"aP c #dfbedf",
"aQ c #cebdce",
"aR c #c4c1c4",
"aS c #00b600",
"aT c #144214",
"aU c #003d00",
"aV c #007f00",
"aW c #e5c9e5",
"aX c #005500",
"aY c #249624",
"aZ c #dbc5db",
"a0 c #32b532",
"a1 c #1e781e",
"a2 c #a0bda0",
"a3 c #c9c1c9",
"a4 c #c3b9c3",
"a5 c #3d853d",
"a6 c #0b8d0b",
"a7 c #002e00",
"a8 c #d0c0d0",
"a9 c #005c00",
"b. c #71b871",
"b# c #c1c0c1",
"ba c #c7c2c7",
"bb c #d4bdd4",
"bc c #eabdea",
"bd c #004f00",
"be c #004300",
"bf c #d2bfd2",
"bg c #006600",
"bh c #1e4f1e",
"bi c #008b00",
"bj c #004b00",
"bk c #cec5ce",
"bl c #008300",
"bm c #c9c5c9",
"bn c #005d00",
"bo c #2d732d",
"bp c #ddd0dd",
"bq c #00ab00",
"br c #9abb9a",
"bs c #85b585",
"bt c #c4c3c4",
"bu c #d1c9d1",
"bv c #809a80",
"bw c #002800",
"bx c #008100",
"by c #dbc2db",
"bz c #c8c3c8",
"bA c #bcbfbc",
"bB c #c6c1c6",
"bC c #007300",
"bD c #00de00",
"bE c #c8bdc8",
"bF c #c0bbc0",
"bG c #00ca00",
"bH c #00d600",
"bI c #dcc1dc",
"bJ c #c6c4c6",
"bK c #008c00",
"bL c #c3c2c3",
"bM c #005b00",
"bN c #006100",
"bO c #008000",
"bP c #019601",
"bQ c #00e100",
"bR c #cec9ce",
"bS c #007c00",
/* pixels */
".#.#.#.#.#.#.#.#...........................#.#.#.#.#.#.#.#.#.#.#",
"........................................................#e......",
"................................................................",
"................................#ebB#Mav#IbB#x.d................",
".....dbLba.................l#u#s#VaQaxbFa4#Q#Ma.bt.d............",
"...7a8amavaubJ.X.......l#xapa8bsay#l.h#Ka6#layawby#Vbt.X........",
"..a3#jabaJas#s#Vb#.d.la3aabr#R.N.M.S.b.k.0.S#caka1#8#MbJ.d......",
"#JbI#R.H.qakaJa2aWbkaRapab.c.G#cbq.W.8.x.A.a#a.e.t.Ta#aM#I.7....",
"b#aP#R.abK.Cbx#daiavaM#8.oar.hae.Hbq.b.W.f.e#k.G.S.rakad#M#q.d.#",
"bfbE#5#k.u.M.L#f.Ra1ag.G.JaF.i.u.R#b.E.O.b.e.9.I.p.e.2#SboaubL.#",
"aPa0.1.9.2#w.v.B#FaX#O.g.4.hbibg.j.n#a.D.i.V.e.5bG.p#gaC.BawaI.X",
"#y.z.e.D.i#c.4.g#PaKaF.Bbl.g#0#b.m.Y.V.r#3.f#f.t#g#2.G#H.LadaW..",
"#D#g.Zbl.UaD#w#d.yaUan.1.PbCaH.HaN#ra5bP.t#6.p.n.S#3.J.I.saobvbp",
"#D#g.a.saG#W.F.j.ybe#L.c.k#0.3.EaTaQaW#BaY#n.r.P.I#1.f.p.aar#9#u",
"#y.t.z.v.q.C#b.g.Kbe.E#..s#LaT#t#8aW..aWaO.a.6.8.2#1#k.r#v#6#AaO",
"#m#t.p.H.F.s.c.u#4#AaU#N.i#CaL#zaMbA.laWax.m.J.v.m.0.a.ebD.nbha8",
"#z#tac.a.p.o.O.O.w.Ua7.F.k.M.Cbh#BaWaW#QaY#Y.6.uaS#2.D#Y.baEaTbm",
"bA#5.z.1.e#d.M.j.E#4#Aa9.k#f.Q.KbNafafa6.H#N.c.n.W.a.W.m.k#hbebv",
"ax.6#n.1.h#4#T.y.F.j.Rbj#h.a.v.w.P#X#f.k.h.r.K.i.D#a.f.0#1.Nbda#",
"aQ#5#n.z.I.c.UaH.M.k.g#FaXbn.q#b.z.3.Z.JaG.j.i.Z.2.h.f#valbOaKah",
"aq#8.G.t.p#Nbi#P#Z.Q.Q.E#Z#T#Abn.s#T.C.L.N.g.n.b.b.O.c.x##a7adbp",
"..aPb.#3.8#d.v.Z#G.B.w.j.c#..F##.C.N###X.o.T.h#Yae.T##aKbwbdavbu",
".l#obcb..5.T.i#H.x.w.y.y#X.P.o.O.v#c.o.i.Y.Q.4ac.r.0.Ybwa9#LaBbm",
"...d#ma2bH.5.m.J.S.V.R#T#P.P.Y.B.j.c#U.h.o.w.R.balaC.sbd.qbo#s#o",
".#..#uaQ#5.9.6aS.f.f.LaN#..m.V#C.KaV.o.x.b.c#W.q.QaVbj#W#Lawa..#",
"....#Ebybr.a.A.e.n.w.U.y.DbQ#2.4.3#S#G#v.5.A#LbwaE#AanafbAaI.7..",
".......laqaxab.V.f.m.g#C.k.f#H.xbS#O#Z.A.I.j#h#A#.#SadaMbu.X....",
".........laabIbbb..t.9.A.b.c.Lbx#ObM.K.3#T#0aD#G#F#9aa#q.d......",
"............#e#ibc#D.x.a#a#U.g.u#U.n.T.u.q.N#fa6ataB#p.7........",
"...............d#uaPbsa0#7aYag#l.8.b#w.qa5a4aza4aubR.7..........",
".#...............lbLambbaA#iapa8bsagagahaubu#I#I#e.d...........#",
".#....................aRbzaj.lbaaZbI#VaI#o.X...................#"
};
